<svg id="Crystal" xmlns="http://www.w3.org/2000/svg" xmlns:xlink="http://www.w3.org/1999/xlink" viewBox="0 0 24.96 30.39">
  <defs>
    <style>
      .cls-1 {
        fill: url(#radial-gradient);
      }

      .cls-2 {
        fill: url(#radial-gradient-2);
      }

      .cls-3 {
        fill: none;
        stroke: #f5d5da;
        stroke-miterlimit: 10;
        stroke-width: 0.3px;
      }

      .cls-4 {
        fill: #d7ab6a;
      }

      .cls-5 {
        fill: #af8650;
      }
    </style>
    <radialGradient id="radial-gradient" cx="6.44" cy="6.14" r="13.87" gradientUnits="userSpaceOnUse">
      <stop offset="0" stop-color="#faf8cc"/>
      <stop offset="0.56" stop-color="#ffe26a"/>
    </radialGradient>
    <radialGradient id="radial-gradient-2" cx="12.48" cy="12.48" r="9.83" gradientUnits="userSpaceOnUse">
      <stop offset="0.85" stop-color="#efbcb9"/>
      <stop offset="1" stop-color="#faf8cc"/>
    </radialGradient>
  </defs>
  <path d="M12.11,30.39a34.44,34.44,0,0,1-9.76-1.45.93.93,0,0,1-.6-1.12l1.78-6.39a.84.84,0,0,1,.08-.19,12.48,12.48,0,1,1,17.58.15.25.25,0,0,1,0,.07l1.29,6.17a1,1,0,0,1-.6,1.1,30.3,30.3,0,0,1-9.78,1.66Z"/>
  <g id="crystal-2" data-name="crystal">
    <circle class="cls-1" cx="12.48" cy="12.48" r="11.98"/>
  </g>
  <path id="crystal-center" class="cls-2" d="M12.48,22.31a9.84,9.84,0,1,1,9.83-9.83A9.85,9.85,0,0,1,12.48,22.31Z"/>
  <polygon id="star-print" class="cls-3" points="18.48 12.48 15.08 13.98 15.48 17.68 12.48 15.48 9.48 17.68 9.88 13.98 6.48 12.48 9.88 10.98 9.48 7.28 12.48 9.48 15.48 7.28 15.08 10.98 18.48 12.48"/>
  <g id="stand">
    <path class="cls-4" d="M4.49,21.34a.34.34,0,0,0-.48.22L2.23,28a.42.42,0,0,0,.27.51,33.93,33.93,0,0,0,9.61,1.43,30.35,30.35,0,0,0,9.61-1.62.5.5,0,0,0,.3-.54l-1.3-6.16a.35.35,0,0,0-.46-.27,31.29,31.29,0,0,1-8.46,1.1C6.87,22.4,4.49,21.34,4.49,21.34Z"/>
  </g>
  <g id="stand-inside">
    <path class="cls-5" d="M12.11,28.89a42.42,42.42,0,0,1-8.37-1.14.39.39,0,0,1-.28-.48l1.23-4.41a.42.42,0,0,1,.49-.29,31,31,0,0,0,6.62.83,42.87,42.87,0,0,0,7.69-.9.4.4,0,0,1,.47.31l.89,4.26a.43.43,0,0,1-.3.5A38,38,0,0,1,12.11,28.89Z"/>
  </g>
</svg>
