<svg id="Crystal" xmlns="http://www.w3.org/2000/svg" xmlns:xlink="http://www.w3.org/1999/xlink" viewBox="0 0 24.96 30.39">
  <defs>
    <style>
      .cls-1, .cls-4 {
        fill: none;
        stroke-miterlimit: 10;
      }

      .cls-1 {
        stroke: #000;
      }

      .cls-2 {
        fill: url(#radial-gradient);
      }

      .cls-3 {
        fill: url(#radial-gradient-2);
      }

      .cls-4 {
        stroke: #f5d5da;
        stroke-width: 0.3px;
      }

      .cls-5 {
        fill: #d7ab6a;
      }

      .cls-6 {
        fill: #af8650;
      }
    </style>
    <radialGradient id="radial-gradient" cx="6.44" cy="6.14" r="13.87" gradientUnits="userSpaceOnUse">
      <stop offset="0" stop-color="#faf8cc"/>
      <stop offset="0.56" stop-color="#ffe26a"/>
    </radialGradient>
    <radialGradient id="radial-gradient-2" cx="18" cy="15.29" r="9.83" gradientUnits="userSpaceOnUse">
      <stop offset="0.85" stop-color="#efbcb9"/>
      <stop offset="1" stop-color="#faf8cc"/>
    </radialGradient>
  </defs>
  <g id="outline-1">
    <circle class="cls-1" cx="12.48" cy="12.48" r="11.98"/>
  </g>
  <g id="outline-2">
    <path class="cls-1" d="M10,24.15a.34.34,0,0,0-.48.22L7.75,30.76a.43.43,0,0,0,.27.51,34.15,34.15,0,0,0,9.61,1.42,30,30,0,0,0,9.61-1.62.49.49,0,0,0,.3-.53l-1.3-6.17a.36.36,0,0,0-.46-.27,31,31,0,0,1-8.46,1.11C12.39,25.21,10,24.15,10,24.15Z" transform="translate(-5.52 -2.81)"/>
  </g>
  <g id="crystal-2" data-name="crystal">
    <circle class="cls-2" cx="12.48" cy="12.48" r="11.98"/>
  </g>
  <path id="crystal-center" class="cls-3" d="M18,25.12a9.84,9.84,0,1,1,9.83-9.83A9.84,9.84,0,0,1,18,25.12Z" transform="translate(-5.52 -2.81)"/>
  <polygon id="star-print" class="cls-4" points="18.48 12.48 15.08 13.98 15.48 17.68 12.48 15.48 9.48 17.68 9.88 13.98 6.48 12.48 9.88 10.98 9.48 7.28 12.48 9.48 15.48 7.28 15.08 10.98 18.48 12.48"/>
  <g id="stand">
    <path class="cls-5" d="M10,24.15a.34.34,0,0,0-.48.22L7.75,30.76a.43.43,0,0,0,.27.51,34.15,34.15,0,0,0,9.61,1.42,30,30,0,0,0,9.61-1.62.49.49,0,0,0,.3-.53l-1.3-6.17a.36.36,0,0,0-.46-.27,31,31,0,0,1-8.46,1.11C12.39,25.21,10,24.15,10,24.15Z" transform="translate(-5.52 -2.81)"/>
  </g>
  <g id="stand-inside">
    <path class="cls-6" d="M17.63,31.69a42.77,42.77,0,0,1-8.37-1.13A.39.39,0,0,1,9,30.08l1.23-4.42a.4.4,0,0,1,.49-.28,31,31,0,0,0,6.62.83,42.87,42.87,0,0,0,7.69-.9.39.39,0,0,1,.47.31l.89,4.25a.43.43,0,0,1-.3.5A38,38,0,0,1,17.63,31.69Z" transform="translate(-5.52 -2.81)"/>
  </g>
</svg>
