<svg id="dragon" xmlns="http://www.w3.org/2000/svg" viewBox="0 0 33.24 31.23" class="graphics">
  <defs>
  <style>
      #inner-frame { fill: #b6732c; }
      #outer-frame { fill: #e6c356; }
      #star { fill: #ab6728; }
      #dragon { fill: #fff; }
  </style>
  </defs>
  <path id="outer-frame" d="M8.66,7.46C8.18,6.78,7.72,6,7.18,5.38c-.86-1.06-1.45-1-2.08.19A8.66,8.66,0,0,0,4,10.8c-1.3-.35-1.57.5-1.79,1.38A9.29,9.29,0,0,0,1.9,17c.07.22.11.61,0,.69-.77.56-.47,1.28-.34,2A8.12,8.12,0,0,0,3.28,23.8c.25.28.27.75.47,1.1.87,1.57,1.75,3.51,3.47,4.47a7.14,7.14,0,0,0-.9.43c-.83.54-.92,1.12-.17,1.77a7.88,7.88,0,0,0,7.27,1.78,20.23,20.23,0,0,0,4.75-1.56,10.41,10.41,0,0,0,4.09,1.62,8.22,8.22,0,0,0,7-1.69c.89-.73.89-1.61-.3-2,.81-1.2,2.25-2.26,2.78-3.56.93-2.26,2.67-4.21,2.83-6.78a10.84,10.84,0,0,0-.19-1.57,2.42,2.42,0,0,1,0-.89,8.53,8.53,0,0,0-.58-5.52c-.16-.4-.79-.61-1.18-.89-.34-1.34-.7-2.76-1.08-4.17a3.69,3.69,0,0,0-.32-.77c-.67-1.22-1.28-1.29-2.15-.2-.54.67-1,1.4-1.54,2.17-.73-.51-1.44-1-2.18-1.51a12.77,12.77,0,0,0-5.15-2c-.5-.07-.67-.27-.73-.76,0-.33-.18-.93-.53-.93a1.38,1.38,0,0,0-.94.67c-.14.22-.16.95-.38,1.12-.75,0-1.58,0-2.18.09a2.23,2.23,0,0,1-.11-1,.7.7,0,0,0-.7-.71.85.85,0,0,0-.66.75,2.45,2.45,0,0,1-.43,1.4C12.19,5.41,10,6.63,8.66,7.46Z" transform="translate(-1.38 -2.39)"/>
  <path id="inner-frame" d="M18,29.2a8,8,0,0,0,4.53,2.17,10.49,10.49,0,0,0,6.68-.82c-.89-1-2.13-1.23-3.58-1.63a13.6,13.6,0,0,0,6-4.76H29.48L29.32,24A14.21,14.21,0,0,0,34,18l-2.27.54,1.54-7.13c-.92-.07-.92-.07-2.36,2.37-.41-1.16-1.05-2.08-.77-3.38a18.52,18.52,0,0,0,.12-3.5c0-.55,0-1.09,0-1.77-1.38.68-1.67,2.14-2.54,3.17A19,19,0,0,0,24.77,6.2a13.94,13.94,0,0,0-4.25-1.45,26,26,0,0,0-5.47-.07,13.93,13.93,0,0,0-2.54,1c-1.36.69-2.61,1.62-4,2.51-.89-.76-1-2.46-2.51-3,0,.77,0,1.4,0,2a12,12,0,0,0,.16,3c.4,1.35-.32,2.28-.88,3.59-.4-1.22-.76-2.25-2.26-2.48L4.6,18.58l-2.48-.51a17.8,17.8,0,0,0,4.36,6H4.42a13.41,13.41,0,0,0,5.64,4.78,8,8,0,0,0-3.77,1.73,14.42,14.42,0,0,0,7.47.67A7.63,7.63,0,0,0,18,29.2ZM16.48,5.79c3.42-.06,4.09.07,6.34.83s7.82,7.66,6.86,13.23A12,12,0,0,0,25.22,25c-1.66,1.25-3.69,2.1-7.24,2.59a16.76,16.76,0,0,1-8.53-4.7c-1-1.34-1.92-2.15-3.07-3.5-.24-4,.4-6.92,2.42-9.43C10,8.45,13.31,5.85,16.48,5.79Z" transform="translate(-1.38 -2.39)"/>
  <g id="dragon">
  <path id="dragon-body" d="M20.7,15c.16.28.07.69.22,1a3.49,3.49,0,0,0-.62.86c-.77,2.32-2.46,2.69-3.47,3.46A8,8,0,0,1,14,21.53s-1.48.48-2.82,1a9,9,0,0,0-2,1.34l2.54,2.06.83-.84-1.15-1c.3.09.58.09.73.24.66.61,1.21.43,1.86-.07A18.34,18.34,0,0,1,16.15,23c.61-.35.59-1,.3-1.72.25.16.62.72,1.07.76.44-.27,2.36-1.53,2.84-1.91,0-.37,0-.67-.75-.85.64-.05.92.26,1.41-.13a6.4,6.4,0,0,0,1.18-2.54c-.14,1.5-.72,3.29-1.85,4.06-1.32,1-2.85,1.8-4.17,2.8-.89.67-1.8,1.32-2.68,2a6.56,6.56,0,0,0-.67.72c1.16,1.13,6.11,1.67,8,1.16C21.72,25,23.92,22.84,25,21a9.38,9.38,0,0,0,1.1-5.59c1,1.46.05,5.39-1.8,7.53-.58.68-1.74,2.25-2.26,3a3.32,3.32,0,0,0-.25,1.51A21.36,21.36,0,0,1,25.44,26a8.65,8.65,0,0,1,.85-4.46,22.14,22.14,0,0,1,1.38,2.52c.26-.86.76-3,.42-4a6.08,6.08,0,0,1-.36-3.34l1.35,1.05c.51-2.77-1.19-4.13-2.84-5.55a4.55,4.55,0,0,1,1,.36,5.12,5.12,0,0,0,.7.18c-.05-.25,0-.59-.15-.74A8.49,8.49,0,0,0,26,10.42a21.48,21.48,0,0,0-3-1,4.31,4.31,0,0,1,1.46-.21A4.28,4.28,0,0,0,25.2,9a4.7,4.7,0,0,0-1.72-.89,10.15,10.15,0,0,0-3.11-.22c-.92,0-1.81.19-2.1.86a1.4,1.4,0,0,0,.22,1.73,5.82,5.82,0,0,0,2.34.73,4.22,4.22,0,0,0-1.22.87A2.48,2.48,0,0,0,19,13.27,4,4,0,0,1,20.7,15Z" transform="translate(-1.38 -2.39)"/>
  <path id="dragon-head" d="M19.71,11.42s-.74.35-1.63-.61S18,8.2,18,8.2a20.49,20.49,0,0,0-2.59,1.68c.94-1.53,2.28-3,2.81-3.83A5.39,5.39,0,0,0,18.7,3c-.43.48-.89,1.85-1.53,2.88a43.66,43.66,0,0,1-3.74,3.59,6.53,6.53,0,0,1,1.15-1.56s.67-4.62.14-4.72a5.57,5.57,0,0,0-.67,2.3,12,12,0,0,1-1,3.24,5,5,0,0,0-1.44,1,7.66,7.66,0,0,0-1.92,2.55c.38.31.63.41,1,.1.61-.55,1.34-.87,1.27-.74a1.31,1.31,0,0,1-.28,1.06,5,5,0,0,1-2.3.44c-.46.52-1.12,1.38-1.91,1.49a2.36,2.36,0,0,0,.6,3.28,4,4,0,0,0,1.77.36,3.21,3.21,0,0,0-.11-.68l1.34,0s-.29-.37-.54-.62a.64.64,0,0,1-.21-.53c1.29-1.33,2.42-.54,3.21-1.33A3.63,3.63,0,0,1,15.36,14a2.59,2.59,0,0,0-1.22,2.52c0,1.44-.23,2-1.72,2.14l.15.31-.87.38a2.71,2.71,0,0,0,3.5.39,1,1,0,0,0,.36-.85,2.72,2.72,0,0,1,1.88-3.1c1-.36,1.6.28,2.61-.33-.76-.63-1.56-.76-1.56-2A2.68,2.68,0,0,1,19.71,11.42Z" transform="translate(-1.38 -2.39)"/>
  <path id="dragon-tongue" d="M12.74,16.71a4.55,4.55,0,0,0-1.34,1.16,10.64,10.64,0,0,1-2.17,1.39c-.66.39-.5,1.81-.5,1.81a6.84,6.84,0,0,1,1.6-1.41,5.22,5.22,0,0,0,1.56-1C12.38,18.22,12.31,17.49,12.74,16.71Z" transform="translate(-1.38 -2.39)"/>
  </g>
  <path id="star" d="M18,24.26c.56-.07,2,2.5,2,2.5s2.87.24,2.87.71a15.84,15.84,0,0,1-1.68,2.93s.8,2.77-.2,3.15-2.82-1.19-2.82-1.19-2.26,1.48-3.12,1.14-.18-3.34-.18-3.34-2.06-2-1.68-2.45,2.92-.91,2.92-.91S17.25,24.36,18,24.26Z" transform="translate(-1.38 -2.39)"/>
</svg>