<svg id="Emblem-Gold" xmlns="http://www.w3.org/2000/svg" viewBox="0 0 33.23 31.53">
  <defs>
    <style>
      .cls-1 {
        fill: #b6732c;
      }

      .cls-2 {
        fill: #fff;
      }

      .cls-3 {
        fill: #e6c356;
      }

      .cls-4 {
        fill: #ab6728;
      }
    </style>
  </defs>
  <path id="outer-frame" class="cls-1" d="M7.12,5.14c-.48-.68-.94-1.42-1.49-2.09C4.76,2,4.17,2,3.53,3.24A8.82,8.82,0,0,0,2.38,8.52a2.32,2.32,0,0,0-1.25,0c-.85,1.42-.5,6.47-.45,7a.72.72,0,0,0-.64.28c-.29,1,1.13,4.89,2.2,6.09a3.51,3.51,0,0,0,.14,1.3c.88,1.59,1.55,3.17,3.29,4.14a4.2,4.2,0,0,0-1.59,1.28c.87,1.95,4.39,3.31,8,2.5a17.2,17.2,0,0,0,4.64-1.34,9.9,9.9,0,0,0,4.39,1.56c2.67.13,5.75-.45,7.44-2.62a1.6,1.6,0,0,0-1.11-1.34,8.39,8.39,0,0,0,3.47-5.45A7.82,7.82,0,0,0,33.23,16a.94.94,0,0,0-.49-.51c.84-2,0-5.15-.66-6.93a2.17,2.17,0,0,0-1.4.35c0-2.42-.52-6-1.68-6.77-.82.2-1.7.94-2.84,3.15a15.63,15.63,0,0,0-2-1.61,17,17,0,0,0-6.09-2C17.79,1,17.61,0,17.25,0a9.18,9.18,0,0,0-1,1.67A8.45,8.45,0,0,0,14,1.93,2.05,2.05,0,0,0,13.22.29a4.84,4.84,0,0,0-1,1.93A40.23,40.23,0,0,0,7.12,5.14Z"/>
  <g id="dragon-body">
    <path id="dragon-body-2" data-name="dragon-body" class="cls-2" d="M19.5,13.4a3.18,3.18,0,0,0-1.7-2.48l.21-.08s2.49,1.32,2.58,2.57a.18.18,0,0,1-.17.1,2.3,2.3,0,0,0-.41-.1A2.16,2.16,0,0,0,19.5,13.4Z"/>
    <path id="dragon-body-3" data-name="dragon-body" class="cls-2" d="M19,14.46a2.75,2.75,0,0,1,.45-.64,1.26,1.26,0,0,1,.53,0,1.17,1.17,0,0,1,.47.18,2.57,2.57,0,0,1-.36,1.68,11,11,0,0,1-.93,1.61,1.46,1.46,0,0,0-.58-.53,4,4,0,0,0-1-.21s.55-.62.85-.93S18.88,14.75,19,14.46Z"/>
    <path id="dragon-body-4" data-name="dragon-body" class="cls-2" d="M14.77,18.56c.2-.14,2.1-1.39,2.49-1.58a2.17,2.17,0,0,1,1,.14,4.07,4.07,0,0,1,.63.61,19.5,19.5,0,0,1-2.8,1.91c-.11,0-.12-.36-.46-.63S14.84,18.74,14.77,18.56Z"/>
    <path id="dragon-body-5" data-name="dragon-body" class="cls-2" d="M11.72,22.28a29.14,29.14,0,0,1,2.73-1.55c.34-.19.76-.36.82-.64a1.82,1.82,0,0,0-.35-.81,3.31,3.31,0,0,0-1.15-.39,21.83,21.83,0,0,0-3.24,1.25,10.79,10.79,0,0,0-2.14,1.2,7.06,7.06,0,0,1,1.6.16C10.82,21.82,11.36,22.42,11.72,22.28Z"/>
    <path id="dragon-body-6" data-name="dragon-body" class="cls-2" d="M7.73,22.1c-.55.57-1,.94-1,.94l3.06,1.25L11.08,23A3,3,0,0,0,9.34,22,5.86,5.86,0,0,0,7.73,22.1Z"/>
    <path id="dragon-body-7" data-name="dragon-body" class="cls-2" d="M20.94,15.07a5.13,5.13,0,0,1-1.85,3.15c-1.33,1-3.05,2-4.38,3-.89.68-1.81,1.33-2.7,2-.26.2-.93,1.14-1.15,1.38,1.16,1.14,6.64,1,8.51.51.93-2.32,4.39-6.11,5-8.5A7.42,7.42,0,0,0,23.18,11,17,17,0,0,0,19.86,8.3a1,1,0,0,1-.46-.53,1.27,1.27,0,0,1,.8.15c.28.16,3.9,1.75,4.64,5.48a6.53,6.53,0,0,1-1.1,5.83c-.51.74-2.46,3.83-3,4.56a3,3,0,0,0-.43,1.47,21.12,21.12,0,0,1,3.72-1.39,8.78,8.78,0,0,1,.86-4.51c.66.47.83,1.12.76,2.74a6.53,6.53,0,0,0,.87-4.33,6,6,0,0,1-.18-3.29l1.37,1c.51-2.79-1.21-4.16-2.88-5.6a4.17,4.17,0,0,1,1,.37,5.68,5.68,0,0,0,.71.18c0-.25,0-.6-.15-.75a8.46,8.46,0,0,0-1.9-1.6,21.3,21.3,0,0,0-3-1A4.36,4.36,0,0,1,23,6.9a3.72,3.72,0,0,0,.79-.22,5,5,0,0,0-1.74-.89,10.33,10.33,0,0,0-3-.12c-.92,0-1.86.26-2.1.84A1.41,1.41,0,0,0,17,8.18a6,6,0,0,0,2.36.74s-1.53,1-1.58,1.48a6.14,6.14,0,0,1,2.66,1.83A3.64,3.64,0,0,1,20.94,15.07Z"/>
  </g>
  <path id="inner-frame" class="cls-3" d="M16.58,27.08a8,8,0,0,0,4.57,2.18,10.47,10.47,0,0,0,6.74-.82c-.9-1-2.15-1.24-3.61-1.64a13.82,13.82,0,0,0,6-4.8H28.13L28,21.82a13.4,13.4,0,0,0,4.72-5.72,5.24,5.24,0,0,0-2.68.62c.68-2.36,1.81-4.94,1.49-7.71a6.08,6.08,0,0,0-2,2.53,7.22,7.22,0,0,0-1-3,22.91,22.91,0,0,0,.38-3.9c0-.55,0-1.1,0-1.79C27.48,3.5,27.19,5,26.31,6a18.25,18.25,0,0,0-2.94-2.13,14.93,14.93,0,0,0-7.71-1.74A11.5,11.5,0,0,0,11,3.33,24.72,24.72,0,0,0,7.05,6,12.05,12.05,0,0,0,4.63,2.9a14.86,14.86,0,0,0,.24,5.71c-.24.75-.68,1.75-1.15,2.86-.41-1.24-1.26-2.33-2-2.45C2,10.78,2.51,14,3,16.37A8.37,8.37,0,0,0,.7,16.14a21.15,21.15,0,0,0,4.23,5.78H2.85a13.55,13.55,0,0,0,5.68,4.82,8.11,8.11,0,0,0-3.8,1.74,14.61,14.61,0,0,0,7.54.68A7.68,7.68,0,0,0,16.58,27.08ZM16.46,3.34A12.28,12.28,0,0,1,25.1,6.75c3.23,2.84,3.81,5.36,3.23,10.9a12,12,0,0,0-4.5,5.17,17,17,0,0,1-7.45,3.49C12,25.39,8.79,21.8,7.92,20.7,6.86,19.34,6,18.52,4.83,17.17c-.25-4,.5-6.8,2.54-9.32C8.59,6.34,12.66,3.34,16.46,3.34Z"/>
  <path id="dragon-head" class="cls-2" d="M18.27,9.14s-.74.35-1.65-.61,0-2.63,0-2.63A19.44,19.44,0,0,0,14,7.59c.95-1.55,2.29-3,2.82-3.87A5.29,5.29,0,0,0,17.25.63c-.43.48-.89,1.86-1.54,2.9a43.11,43.11,0,0,1-3.78,3.63,6.66,6.66,0,0,1,1.16-1.57s.68-4.67.15-4.77a5.48,5.48,0,0,0-.68,2.32,12.19,12.19,0,0,1-1,3.27,5.09,5.09,0,0,0-1.45,1.06A7.93,7.93,0,0,0,8.18,10c.39.31.64.41,1,.1.62-.55,1.35-.88,1.29-.74a1.33,1.33,0,0,1-.29,1.06,5,5,0,0,1-2.32.45c-.47.52-1.13,1.39-1.92,1.5a2.39,2.39,0,0,0,.59,3.31,4.17,4.17,0,0,0,1.79.37,3.4,3.4,0,0,0-.11-.7H9.56S9.27,15,9,14.75a.64.64,0,0,1-.21-.53c1.3-1.34,2.44-.54,3.24-1.34a3.69,3.69,0,0,1,1.83-1.1,2.64,2.64,0,0,0-1.22,2.55c0,1.45-.24,2-1.74,2.16l.14.31-.87.38a2.73,2.73,0,0,0,3.53.39,1,1,0,0,0,.36-.86A2.74,2.74,0,0,1,16,13.59c1-.36,1.61.29,2.63-.33-.76-.64-1.57-.77-1.57-2.06A2.71,2.71,0,0,1,18.27,9.14Z"/>
  <path id="dragon-tongue" class="cls-2" d="M11.24,14.48a4.5,4.5,0,0,0-1.35,1.17,11,11,0,0,1-2.2,1.4c-.65.39-.49,1.83-.49,1.83a6.7,6.7,0,0,1,1.61-1.42,5.56,5.56,0,0,0,1.58-1C10.87,16,10.81,15.26,11.24,14.48Z"/>
  <path id="star" class="cls-4" d="M16.55,22.1c.56-.07,2,2.51,2,2.51s2.9.25,2.9.73a16.06,16.06,0,0,1-1.69,2.95s.8,2.79-.21,3.18-2.84-1.2-2.84-1.2-2.28,1.49-3.15,1.15-.19-3.37-.19-3.37-2.07-2-1.69-2.47,3-.92,3-.92S15.79,22.2,16.55,22.1Z"/>
</svg>
