<svg id="Emblem-Green" xmlns="http://www.w3.org/2000/svg" viewBox="0 0 28.76 31.53">
  <defs>
  <style>
  #outer-frame { fill: #408630; }
  #inner-frame { fill: #59b34f; }
  #star { fill: #3e7d2c; }
  .dragon { fill: #fff; }
  </style>
  </defs>
  <path id="outer-frame" d="M5.78,12c-1.84,3.49-1.38,8.83,0,11.83A3.58,3.58,0,0,0,3.66,24a9.53,9.53,0,0,0,4.81,6.19c2.53,1.23,8.77,1.71,9.77.55,1.64,1.58,7.88.26,9.51-.71s5.19-3.71,4.61-6.19a10.62,10.62,0,0,0-2.29,0A15.12,15.12,0,0,0,31.45,15a12.48,12.48,0,0,0-5.56-8.85,19.92,19.92,0,0,0-6.48-2.22c-.24-.66-.41-1.7-.77-1.7a9,9,0,0,0-1,1.67,8.52,8.52,0,0,0-2.25.27,2.09,2.09,0,0,0-.75-1.65,4.89,4.89,0,0,0-1,1.94A15.49,15.49,0,0,0,5.78,12Z" transform="translate(-3.66 -2.23)"/>
  <path id="dragon-body" class="dragon" d="M20.65,15c.17.28.08.69.22,1a3.62,3.62,0,0,0-.62.87c-.78,2.33-2.48,2.71-3.5,3.49a8.16,8.16,0,0,1-2.85,1.16s-1.5.48-2.85,1a9.2,9.2,0,0,0-2,1.36L11.63,26l.83-.85-1.15-1c.3.09.58.09.73.24.67.62,1.22.44,1.87-.07A18.8,18.8,0,0,1,16.07,23c.61-.36.59-1,.3-1.74.25.16.62.73,1.08.77.44-.27,2.38-1.54,2.86-1.93,0-.37,0-.68-.75-.85.64-.05.93.26,1.42-.13a6.55,6.55,0,0,0,1.19-2.57c-.14,1.51-.73,3.32-1.87,4.1-1.33,1-2.87,1.81-4.21,2.83-.89.67-1.81,1.32-2.7,2a6.64,6.64,0,0,0-.68.72c1.17,1.14,6.17,1.69,8,1.18.93-2.32,3.15-4.5,4.2-6.4a9.47,9.47,0,0,0,1.11-5.64c1,1.48.05,5.44-1.81,7.6-.59.69-1.76,2.27-2.29,3a3.45,3.45,0,0,0-.24,1.53,20.83,20.83,0,0,1,3.71-1.39,8.78,8.78,0,0,1,.86-4.51,23.62,23.62,0,0,1,1.39,2.55c.27-.87.77-3.06.43-4.07a6,6,0,0,1-.36-3.36l1.36,1.06c.52-2.8-1.2-4.17-2.87-5.61a4.47,4.47,0,0,1,1.05.37,5.27,5.27,0,0,0,.71.18c-.05-.25,0-.6-.15-.75a8.69,8.69,0,0,0-1.9-1.6,21.74,21.74,0,0,0-3-1,4.36,4.36,0,0,1,1.47-.21,3.89,3.89,0,0,0,.79-.22A5,5,0,0,0,23.46,8a10,10,0,0,0-3.14-.22c-.93,0-1.83.19-2.12.87a1.4,1.4,0,0,0,.23,1.74,5.91,5.91,0,0,0,2.35.74,4.22,4.22,0,0,0-1.22.87A2.48,2.48,0,0,0,19,13.24,4,4,0,0,1,20.65,15Z" transform="translate(-3.66 -2.23)"/>
  <path id="inner-frame" d="M24.76,6.11A15.11,15.11,0,0,0,17,4.38a10.74,10.74,0,0,0-6.28,2.55,15.39,15.39,0,0,0-5.08,7,15.32,15.32,0,0,0,.8,10.42,3,3,0,0,0-1.95.18C6,26.81,7.24,27.68,9.92,29s6.83,1.55,8,.34c1.21,1.41,5.55.56,7.7-.27a13.29,13.29,0,0,0,6-4.67,6.13,6.13,0,0,0-2.38,0A17.5,17.5,0,0,0,31,17.61C31.31,11.86,28.5,8.38,24.76,6.11Zm-6.91-.54A12.3,12.3,0,0,1,26.49,9a10.16,10.16,0,0,1,3.22,7.51,13.11,13.11,0,0,1-2.49,8.22c-2.22,1-5.83,3.66-9.4,4.16-2.31-.16-4.3-1.41-6.06-2.48a21.86,21.86,0,0,0-3.81-2,15.92,15.92,0,0,1-1.79-6A12.2,12.2,0,0,1,9.06,10,11.67,11.67,0,0,1,17.85,5.57Z" transform="translate(-3.66 -2.23)"/>
  <path id="dragon-head" class="dragon" d="M19.65,11.37s-.74.36-1.64-.61S18,8.13,18,8.13a19.61,19.61,0,0,0-2.61,1.7c1-1.55,2.3-3,2.83-3.87a5.41,5.41,0,0,0,.46-3.1c-.44.49-.9,1.86-1.55,2.9a40.08,40.08,0,0,1-3.77,3.63,6.6,6.6,0,0,1,1.16-1.57s.68-4.67.14-4.76A5.34,5.34,0,0,0,14,5.38a12.49,12.49,0,0,1-1,3.26,5,5,0,0,0-1.45,1.07,7.79,7.79,0,0,0-1.95,2.57c.39.31.65.41,1,.09.62-.54,1.35-.87,1.29-.74a1.31,1.31,0,0,1-.29,1.07,5.07,5.07,0,0,1-2.32.45c-.46.52-1.13,1.38-1.92,1.5a2.37,2.37,0,0,0,.6,3.3,4,4,0,0,0,1.79.37,3.3,3.3,0,0,0-.11-.69l1.35,0s-.29-.37-.55-.63a.6.6,0,0,1-.2-.53c1.3-1.34,2.44-.54,3.23-1.34A3.63,3.63,0,0,1,15.27,14,2.62,2.62,0,0,0,14,16.56c0,1.46-.24,2-1.74,2.16l.15.31-.87.39a2.74,2.74,0,0,0,3.53.39,1,1,0,0,0,.36-.86,2.75,2.75,0,0,1,1.9-3.13c1-.36,1.61.29,2.63-.33-.77-.63-1.57-.76-1.57-2.05A2.74,2.74,0,0,1,19.65,11.37Z" transform="translate(-3.66 -2.23)"/>
  <path id="dragon-tongue" class="dragon" d="M12.62,16.71a4.8,4.8,0,0,0-1.35,1.18,11.31,11.31,0,0,1-2.19,1.4c-.66.39-.5,1.82-.5,1.82a6.7,6.7,0,0,1,1.61-1.42,5.22,5.22,0,0,0,1.58-1C12.26,18.23,12.19,17.5,12.62,16.71Z" transform="translate(-3.66 -2.23)"/>
  <path id="star" d="M17.93,24.33c.56-.07,2,2.52,2,2.52s2.91.24,2.91.72a15.7,15.7,0,0,1-1.7,2.95s.81,2.8-.21,3.18-2.83-1.19-2.83-1.19S15.82,34,15,33.65s-.18-3.37-.18-3.37-2.08-2-1.69-2.46,3-.92,3-.92S17.17,24.43,17.93,24.33Z" transform="translate(-3.66 -2.23)"/>
</svg>
