<svg id="Emblem-Gold" xmlns="http://www.w3.org/2000/svg" viewBox="0 0 36 36">
  <defs>
  <style>
  #inner-frame { fill: #e6c356; }
  #outer-frame { fill: #b6732c; }
  #star { fill: #ab6728; }
  .dragon { fill: #fff; }
  </style>
  </defs>
  <path id="outer-frame" d="M8.5,7.38C8,6.69,7.56,6,7,5.28c-.87-1.07-1.46-1-2.09.2a8.77,8.77,0,0,0-1.16,5.27,2.43,2.43,0,0,0-1.25,0c-.84,1.43-.49,6.47-.44,7a.71.71,0,0,0-.65.27c-.29,1,1.13,4.9,2.2,6.09a3.83,3.83,0,0,0,.15,1.31c.88,1.59,1.55,3.17,3.29,4.13a4.24,4.24,0,0,0-1.6,1.29c.88,1.95,4.39,3.3,8,2.49a16.8,16.8,0,0,0,4.65-1.33,9.91,9.91,0,0,0,4.38,1.56c2.68.13,5.76-.45,7.45-2.63a1.66,1.66,0,0,0-1.11-1.34,8.36,8.36,0,0,0,3.46-5.44,7.78,7.78,0,0,0,2.32-5.87,1,1,0,0,0-.48-.52c.84-2,0-5.14-.66-6.93a2.24,2.24,0,0,0-1.4.36c0-2.42-.52-6-1.68-6.77-.82.19-1.71.93-2.85,3.15a14.76,14.76,0,0,0-2-1.61,17.06,17.06,0,0,0-6.1-2c-.24-.66-.41-1.7-.77-1.7a9,9,0,0,0-1,1.67,8.52,8.52,0,0,0-2.25.27,2.09,2.09,0,0,0-.75-1.65,4.89,4.89,0,0,0-1,1.94A38.58,38.58,0,0,0,8.5,7.38Z" transform="translate(-1.38 -2.23)"/>
  <path id="dragon-body" class="dragon" d="M20.65,15c.17.28.08.69.22,1a3.62,3.62,0,0,0-.62.87c-.78,2.33-2.48,2.71-3.5,3.49a8.16,8.16,0,0,1-2.85,1.16s-1.5.48-2.85,1a9.2,9.2,0,0,0-2,1.36L11.63,26l.83-.85-1.15-1c.3.09.58.09.73.24.67.62,1.22.44,1.87-.07A18.8,18.8,0,0,1,16.07,23c.61-.36.59-1,.3-1.74.25.16.62.73,1.08.77.44-.27,2.38-1.54,2.86-1.93,0-.37,0-.68-.75-.85.64-.05.93.26,1.42-.13a6.55,6.55,0,0,0,1.19-2.57c-.14,1.51-.73,3.32-1.87,4.1-1.33,1-2.87,1.81-4.21,2.83-.89.67-1.81,1.32-2.7,2a6.64,6.64,0,0,0-.68.72c1.17,1.14,6.17,1.69,8,1.18.93-2.32,3.15-4.5,4.2-6.4a9.47,9.47,0,0,0,1.11-5.64c1,1.48.05,5.44-1.81,7.6-.59.69-1.76,2.27-2.29,3a3.45,3.45,0,0,0-.24,1.53,20.83,20.83,0,0,1,3.71-1.39,8.78,8.78,0,0,1,.86-4.51,23.62,23.62,0,0,1,1.39,2.55c.27-.87.77-3.06.43-4.07a6,6,0,0,1-.36-3.36l1.36,1.06c.52-2.8-1.2-4.17-2.87-5.61a4.47,4.47,0,0,1,1.05.37,5.27,5.27,0,0,0,.71.18c-.05-.25,0-.6-.15-.75a8.69,8.69,0,0,0-1.9-1.6,21.74,21.74,0,0,0-3-1,4.36,4.36,0,0,1,1.47-.21,3.89,3.89,0,0,0,.79-.22A5,5,0,0,0,23.46,8a10,10,0,0,0-3.14-.22c-.93,0-1.83.19-2.12.87a1.4,1.4,0,0,0,.23,1.74,5.91,5.91,0,0,0,2.35.74,4.22,4.22,0,0,0-1.22.87A2.48,2.48,0,0,0,19,13.24,4,4,0,0,1,20.65,15Z" transform="translate(-1.38 -2.23)"/>
  <path id="inner-frame" d="M18,29.31a8,8,0,0,0,4.57,2.19,10.54,10.54,0,0,0,6.74-.83c-.9-1-2.15-1.23-3.61-1.63a13.79,13.79,0,0,0,6-4.81H29.51l-.16-.17a13.5,13.5,0,0,0,4.71-5.72,5.17,5.17,0,0,0-2.67.61c.68-2.35,1.8-4.93,1.48-7.71a6.23,6.23,0,0,0-2,2.53,7.15,7.15,0,0,0-1-3,23.13,23.13,0,0,0,.38-3.91c0-.54,0-1.09,0-1.78-1.38.69-1.67,2.16-2.55,3.2a20.08,20.08,0,0,0-2.94-2.13A15.11,15.11,0,0,0,17,4.38a11.63,11.63,0,0,0-4.65,1.18,25.3,25.3,0,0,0-4,2.67A11.83,11.83,0,0,0,6,5.14a14.8,14.8,0,0,0,.24,5.7c-.24.75-.69,1.75-1.16,2.86-.4-1.23-1.26-2.33-2-2.45.29,1.77.82,4.94,1.34,7.35a8.34,8.34,0,0,0-2.33-.23,21.43,21.43,0,0,0,4.23,5.78H4.23A13.5,13.5,0,0,0,9.92,29a8.17,8.17,0,0,0-3.81,1.75,14.73,14.73,0,0,0,7.55.67A7.68,7.68,0,0,0,18,29.31ZM17.85,5.57A12.3,12.3,0,0,1,26.49,9c3.22,2.84,3.8,5.35,3.22,10.89a12.13,12.13,0,0,0-4.5,5.18,16.86,16.86,0,0,1-7.44,3.48c-4.35-.92-7.6-4.5-8.46-5.61-1.07-1.35-1.94-2.17-3.1-3.53-.24-4,.51-6.79,2.55-9.32C10,8.58,14,5.57,17.85,5.57Z" transform="translate(-1.38 -2.23)"/>
  <path id="dragon-head" class="dragon" d="M19.65,11.37s-.74.36-1.64-.61S18,8.13,18,8.13a19.61,19.61,0,0,0-2.61,1.7c1-1.55,2.3-3,2.83-3.87a5.41,5.41,0,0,0,.46-3.1c-.44.49-.9,1.86-1.55,2.9a40.08,40.08,0,0,1-3.77,3.63,6.6,6.6,0,0,1,1.16-1.57s.68-4.67.14-4.76A5.34,5.34,0,0,0,14,5.38a12.49,12.49,0,0,1-1,3.26,5,5,0,0,0-1.45,1.07,7.79,7.79,0,0,0-1.95,2.57c.39.31.65.41,1,.09.62-.54,1.35-.87,1.29-.74a1.31,1.31,0,0,1-.29,1.07,5.07,5.07,0,0,1-2.32.45c-.46.52-1.13,1.38-1.92,1.5a2.37,2.37,0,0,0,.6,3.3,4,4,0,0,0,1.79.37,3.3,3.3,0,0,0-.11-.69l1.35,0s-.29-.37-.55-.63a.6.6,0,0,1-.2-.53c1.3-1.34,2.44-.54,3.23-1.34A3.63,3.63,0,0,1,15.27,14,2.62,2.62,0,0,0,14,16.56c0,1.46-.24,2-1.74,2.16l.15.31-.87.39a2.74,2.74,0,0,0,3.53.39,1,1,0,0,0,.36-.86,2.75,2.75,0,0,1,1.9-3.13c1-.36,1.61.29,2.63-.33-.77-.63-1.57-.76-1.57-2.05A2.74,2.74,0,0,1,19.65,11.37Z" transform="translate(-1.38 -2.23)"/>
  <path id="dragon-tongue" class="dragon" d="M12.62,16.71a4.8,4.8,0,0,0-1.35,1.18,11.31,11.31,0,0,1-2.19,1.4c-.66.39-.5,1.82-.5,1.82a6.7,6.7,0,0,1,1.61-1.42,5.22,5.22,0,0,0,1.58-1C12.26,18.23,12.19,17.5,12.62,16.71Z" transform="translate(-1.38 -2.23)"/>
  <path id="star" d="M17.93,24.33c.56-.07,2,2.52,2,2.52s2.91.24,2.91.72a15.7,15.7,0,0,1-1.7,2.95s.81,2.8-.21,3.18-2.83-1.19-2.83-1.19S15.82,34,15,33.65s-.18-3.37-.18-3.37-2.08-2-1.69-2.46,3-.92,3-.92S17.17,24.43,17.93,24.33Z" transform="translate(-1.38 -2.23)"/>
</svg>
