<svg xmlns="http://www.w3.org/2000/svg" xmlns:xlink="http://www.w3.org/1999/xlink" viewBox="0 0 60 46">
  <defs>
    <style>
      .cls-1 { fill: #dead85; }
      .cls-2 { clip-path: url(#clip-path); }
      .cls-3 { fill: #78341f; }
      .cls-4 { fill: #ad6755; }
    </style>
    <clipPath id="clip-path">
      <path class="cls-1" d="M43.57,7.1s-3.34,3.44-5.51,4-6.32-.73-8.49-.73A10.65,10.65,0,0,0,24.87,12a3.29,3.29,0,0,0-3.25-2.89c-2.89,0-7.4.9-7.58,2.53s.18,2.71.9,4.7.9,12.82,1.26,16.43,0,6.15,3.8,6.15,8.13-1.22,11.38-1,6.23-.63,8.13-.41,6.5-1.8,6.5-1.8-.72-10.3-1.26-16.08S43.57,7.1,43.57,7.1Z"/>
    </clipPath>
  </defs>
  <g id="Items_scale_140_" data-name="Items (scale 140)">
    <g id="Map">
      <path class="cls-1" d="M43.57,7.1s-3.34,3.44-5.51,4-6.32-.73-8.49-.73A10.65,10.65,0,0,0,24.87,12a3.29,3.29,0,0,0-3.25-2.89c-2.89,0-7.4.9-7.58,2.53s.18,2.71.9,4.7.9,12.82,1.26,16.43,0,6.15,3.8,6.15,8.13-1.22,11.38-1,6.23-.63,8.13-.41,6.5-1.8,6.5-1.8-.72-10.3-1.26-16.08S43.57,7.1,43.57,7.1Z"/>
      <g class="cls-2">
        <path class="cls-3" d="M46.82,32.85S45.5,34.46,41,35.42s-6.1-.27-9.49.68S25.78,37.63,24,38s-4.51-.18-4.51-1.53c0-2,1.35-2.53,3-1.72s-.28,1.09.81,1.63,2.35.09,2.26-1.72-1.63-1.62-4.7-1.44c-2.58.15-4.15,2.62-3.7,5.87S31.51,38,32.6,38s15.31,1.36,15.31,1.36Z"/>
        <path class="cls-4" d="M24.87,3.58s-1.08,7.05-1.35,12.47,1.63,13.54,1.63,13.54-1.63-12.19-.28-17.34,3-9.48,3-9.48Z"/>
      </g>
    </g>
  </g>
</svg>
