<svg xmlns="http://www.w3.org/2000/svg" viewBox="0 0 60 46">
  <defs>
    <style>
      .cls-1 { fill: #865e55; }
      .cls-2 { fill: #d39e78; }
    </style>
  </defs>
  <g id="Light">
    <g id="Slate">
      <g id="Slate-2" data-name="Slate">
        <path class="cls-1" d="M55.13,5.67s-1.21-2.23-4.85-2.23-14.92.11-14.92.11l-2.62.86L30.34,4l-19.85,0L5.63,5.67l.61,4.89-.62,2.87s-1.25,5.23-1.2,5.48a9.11,9.11,0,0,0,2.12,1.73c-.74.24-1.74,1.81-2.21,2.2A77.94,77.94,0,0,0,3.58,33C4,35.94,4.49,38.2,6,39.61c2.43.42,6,2.51,8.1,2.63.95-.09,6.24-.81,7-1.23.5-.42,1.26-.88,1.45-1.46.91.84,1.8,2.57,2.34,2.78,1.79.52,25.81,0,25.81,0l5-4.64L56.38,29l-.94-2.33.37-2.52s.24-5.14.1-6.19c-.54-.49,0-4.2.53-4.94C56.52,12.41,55.13,5.67,55.13,5.67Z"/>
      </g>
      <g id="Slate-3" data-name="Slate">
        <path class="cls-2" d="M55.13,5.67s-1.21-2.23-4.85-2.23-14.92.11-14.92.11l-2.62.86L30.34,4l-19.85,0,.81,4.84L8.46,15.24l2.32,3.87S7.9,25.56,7.94,25.82C8.66,26.67,7,31,7,31s3.16,3.46,5.29,3.58c.95-.09,26.06.77,26.06.77l1,2.84h1.8l1.42-2.58,9.12,1.44,2.62-4.79,1-5.58.37-2.52s.24-5.14.1-6.19c-.54-.49,0-4.2.53-4.94C56.52,12.41,55.13,5.67,55.13,5.67Z"/>
      </g>
    </g>
  </g>
</svg>
