<svg xmlns="http://www.w3.org/2000/svg" xmlns:xlink="http://www.w3.org/1999/xlink" viewBox="0 0 60 46">
  <defs>
    <style>
      .cls-1 { fill: #ac7feb; }
      .cls-2 { fill: #80267f; }
      .cls-3 { clip-path: url(#clip-path); }
      .cls-4 { fill: #ad3ada; }
    </style>
    <clipPath id="clip-path">
      <path class="cls-1" d="M39.91,30.41s-.09-1.9-3.34-3.25c-1.71-.71-3.65-3.2-4.34-2.17a6.82,6.82,0,0,1-2,1.81s-6.87-4.52-4.16-11.29c2.71-1.36,4.61-5.69,4.61-5.69a3.11,3.11,0,0,0-3.8-3.53c-4.24.46-7.85,1.9-10.29,7.86-2.34,5.72-3.25,10,1.08,14.63a17,17,0,0,0,10.57,4.88,7,7,0,0,1,0,2.44,18.77,18.77,0,0,0,7,3.52c1.9.54,2.44-.81,4.07-3S39.91,30.41,39.91,30.41Z"/>
    </clipPath>
  </defs>
  <g id="Items_scale_140_" data-name="Items (scale 140)">
    <g id="Feather">
      <path class="cls-2" d="M38.56,33.12l5.69,1.35s1.53,1.18,1,2.26S44,38,42.35,37.73a48,48,0,0,1-4.88-1.36Z"/>
      <g>
        <path class="cls-1" d="M39.91,30.41s-.09-1.9-3.34-3.25c-1.71-.71-3.65-3.2-4.34-2.17a6.82,6.82,0,0,1-2,1.81s-6.87-4.52-4.16-11.29c2.71-1.36,4.61-5.69,4.61-5.69a3.11,3.11,0,0,0-3.8-3.53c-4.24.46-7.85,1.9-10.29,7.86-2.34,5.72-3.25,10,1.08,14.63a17,17,0,0,0,10.57,4.88,7,7,0,0,1,0,2.44,18.77,18.77,0,0,0,7,3.52c1.9.54,2.44-.81,4.07-3S39.91,30.41,39.91,30.41Z"/>
        <g class="cls-3">
          <path class="cls-4" d="M31.15,11.8c-5.24,3.07-7.77,3.35-9.39,3.07s-2.17-.81-3.8.64-4.24,5.1-3.52,8.94a14.18,14.18,0,0,0,4.33,7.31s-3.52-5.51-1.53-10.56c2.35-2,4-3.8,7-4.52S30.06,14.87,31.15,11.8Z"/>
        </g>
      </g>
    </g>
  </g>
</svg>
