<svg id="Light" xmlns="http://www.w3.org/2000/svg" viewBox="0 0 60 46">
  <defs>
    <style>
      .cls-1 { fill: #d99d5d; }
      .cls-2 { fill: #ffff5b; }
      .cls-3 { fill: #d8694a; }
      .cls-4 { fill: #1c1713; }
      .cls-5 { fill: #ecd0a6; }
      .cls-6 { fill: #572527; }
    </style>
  </defs>
  <g id="Monster-Boss">
    <path class="cls-1" d="M19.54,24.86a26.76,26.76,0,0,1-4.77-2.71,12.36,12.36,0,0,1-4.65-6.83c1.49-4.07,2.58-7.87,6-8.62A8.76,8.76,0,0,1,23,7.83a6.28,6.28,0,0,0-2.46,6.07c.78,2.58,3.88,4.25,3.88,4.25l-2.33,7Z"/>
    <path class="cls-2" d="M20.09,22.92A24.22,24.22,0,0,1,16,20.55a10.33,10.33,0,0,1-3.74-5.17l.12-.34c1.32-3.68,2.23-6,4.2-6.38a8,8,0,0,1,1.74-.19,7.3,7.3,0,0,1,1.39.13,8,8,0,0,0-1.08,5.62l0,.13,0,.12A9.38,9.38,0,0,0,22.07,19l-1.33,4Z"/>
    <path class="cls-1" d="M46.83,21a11.48,11.48,0,0,0,3-5.42c.32-4.94-1.94-6.07-3.74-7.87s-6.39-2.1-8.78,0c.78.51,2.2,3,2.33,5.67a18.07,18.07,0,0,1-.39,4.65l-2.1,1.42,3,6.48,5.71-2.9Z"/>
    <path class="cls-2" d="M39.65,20.18l1.33-.9.18-.74a19.6,19.6,0,0,0,.44-5.22,12.13,12.13,0,0,0-1.33-4.88,6,6,0,0,1,1.43-.17,4.39,4.39,0,0,1,2.94.88l.91.85C47,11.32,48,12.2,47.82,15.26a10.05,10.05,0,0,1-2.3,4.26l-.29.26-.19.36-.71,1.44-3.26,1.66Z"/>
    <path class="cls-3" d="M18.83,37.09c1.91,2.55,8.65,2.52,9,2.52s8.59.77,12.07-1.55a6.73,6.73,0,0,0,2.39-7,23.89,23.89,0,0,1,5.29-4.9c1.61-3.13,3.22-5.16,2.77-5.84s-5.81.84-9.16,2.84a3,3,0,0,1-1.61-.87c-.78-.78,0-4.26-.55-4.87s-1.68-1.26-3.9-1.07a8.84,8.84,0,0,0-3.75,1.74,5.54,5.54,0,0,0-4.19-1.67,5.5,5.5,0,0,0-3.16,1.67c-1,1.49-2.71,4.52-3.61,5.29s-2.07,1.87-2.07,1.87-3.81-3.09-5.93-2.13a6,6,0,0,0-2.91,2.91s3.87,5.22,5.23,6a30.14,30.14,0,0,0,3.39,1.55A7.34,7.34,0,0,0,18.83,37.09Z"/>
    <path class="cls-4" d="M26.7,26.83C28.77,25,36,26.06,37,26.32s2.58,4.9,2.58,6.19-.51,1.68-2.45,2.19c-2.46.65-7.78.16-9.62.16a4.19,4.19,0,0,1-3.68-1.58A11.51,11.51,0,0,1,26.7,26.83Z"/>
    <path class="cls-2" d="M27.16,24.09a3.26,3.26,0,0,1-2.59-.74s.26-.58,2.39-1,2.39,1.07,3.55.68A12.94,12.94,0,0,1,27.16,24.09Z"/>
    <polyline class="cls-5" points="25.54 34.93 27.41 32.09 28.19 35.06"/>
    <path class="cls-5" d="M26,27c.07,1.42,1.75,2.94,1.75,2.94s.12-.87.19-2.48a11.17,11.17,0,0,1,4-.91,11.67,11.67,0,0,1,4.22.55,22.6,22.6,0,0,0,.39,2.58,3.73,3.73,0,0,0,1.29-2.52l.32-1.58-11.29.07Z"/>
    <polyline class="cls-5" points="36.06 35.19 37.22 32.54 38.25 34.99"/>
    <path class="cls-2" d="M35.54,23.83s.36-2.19,1.42-2.19A3.54,3.54,0,0,1,39,22.8S38.64,24,37.61,24A18.92,18.92,0,0,1,35.54,23.83Z"/>
    <path class="cls-6" d="M29.86,22.67l2.07-1.55s1.42,1.42,2.71,1a26.43,26.43,0,0,0-3.23-4A10.19,10.19,0,0,1,29.86,22.67Z"/>
  </g>
</svg>
