<svg xmlns="http://www.w3.org/2000/svg" xmlns:xlink="http://www.w3.org/1999/xlink" viewBox="0 0 60 46">
  <defs>
    <style>
      .cls-1 { fill: #e1764a; }
      .cls-2 { fill: #782b13; }
      .cls-3 { fill: #927ee6; }
      .cls-4 { fill: #da87c7; }
      .cls-5 { clip-path: url(#clip-path); }
      .cls-6 { fill: #f8dea9; }
    </style>
    <clipPath id="clip-path">
      <path class="cls-1" d="M20.73,26.6s-2.71-4.88-.27-7.32,5.12-4,8.94-3.79c5.15.27,8.4,0,9,3.79a14.85,14.85,0,0,1-.27,6.23Z"/>
    </clipPath>
  </defs>
  <g id="Items_scale_140_" data-name="Items (scale 140)">
    <g>
      <path class="cls-2" d="M40.06,31.38s1.67,3.48,2.35,5c-1.22,1.08-6.94,2.17-12.41,2.17s-13.4-.21-14.28-1.29a61.68,61.68,0,0,1,2.85-6Z"/>
      <path class="cls-3" d="M18.57,31.2C16.4,29,15,24.7,15.86,18.38S20.91,8.26,29.58,7.54,44,13.32,44.4,19.46s-4.34,11.92-4.34,11.92a47.53,47.53,0,0,1-12.28,2C21.82,33.37,18.57,31.2,18.57,31.2Z"/>
      <path class="cls-4" d="M19.11,29.21l20.59-.36s1.81-1.44,1.45-6.86A11.14,11.14,0,0,0,30,11.51c-6.51,0-10.93,3.25-11.66,8.31A21.87,21.87,0,0,0,19.11,29.21Z"/>
      <g>
        <path class="cls-1" d="M20.73,26.6s-2.71-4.88-.27-7.32,5.12-4,8.94-3.79c5.15.27,8.4,0,9,3.79a14.85,14.85,0,0,1-.27,6.23Z"/>
        <g class="cls-5">
          <path class="cls-6" d="M19.38,18.2l8.4.81v7.86h3l.27-8.4L40.78,16s-3.52-2.71-11.38-2.71S19.38,18.2,19.38,18.2Z"/>
        </g>
      </g>
    </g>
  </g>
</svg>
