<svg id="Light" xmlns="http://www.w3.org/2000/svg" viewBox="0 0 60 46">
  <defs>
    <style>
      .cls-1 { fill: #945e58; }
      .cls-2 { fill: #ae5e43; }
      .cls-3 { fill: #c4794e; }
      .cls-4 { fill: #672f29; }
      .cls-5 { fill: #a3583d; }
    </style>
  </defs>
  <g id="Monster-Elite">
    <path class="cls-1" d="M27.05,17.78c.54-1.2.18-.47-.58-1.46s-2.26-2.94-1.6-5.49c.42-1.65,1.6-.36,1.93.58a8.15,8.15,0,0,1,.11,2.51s2.69-.5,2.33-2.66c-.39-2.32-1-3.61-4.51-4.39a14.53,14.53,0,0,0-7.86,2.07,11.68,11.68,0,0,0-2,7.39c.22,3.17,3.57,6.21,3.57,6.21s4.36.26,5.23.11a3.84,3.84,0,0,0,2.64-2.36A25,25,0,0,0,27.05,17.78Z"/>
    <path class="cls-1" d="M42.73,23.78l1-2.33C48,20.61,51.84,13,49.15,9.78c-2.94-2.65-8-4.45-12.62-3,0,0-3.87,1-4.64,2.91s-1.36,3.87-.2,3.87,3.75-1.74,6-2.52c2.65.52,3.55,1.42,3.55,3.1s-1.16,2.71-4,4l-2.32.64,6.19,5.94Z"/>
    <path class="cls-2" d="M37.89,20.94c4.92.3,9.14,1,10.3,2s.38,2.36-1,3.64a17.79,17.79,0,0,1-5.09,2.76"/>
    <path class="cls-3" d="M19.17,22.15c-2.77.85-7.65.75-8.38,2.79-.15,2.33,1.4,3.58,2.13,4.45s6.77,1.74,6.77,1.74c-1.45,3.2,1.36,8.57,5.37,9.13,6.82,1,12.44-.87,14.69-2.47S43,34,42.08,29.35a14.59,14.59,0,0,1-2.33-4.65s-1.74-7-2.91-7.56c-.62-.32-4.58-.22-5.23.43a6.46,6.46,0,0,0-2.84-.43A12.27,12.27,0,0,0,19.17,22.15Z"/>
    <path class="cls-4" d="M22,25.52l2.51,1.55,4.45-.2.78-1.35s-4.26-.58-5.42-.58A6,6,0,0,0,22,25.52Z"/>
    <polygon class="cls-4" points="35.37 25.52 37.11 26.29 38.47 25.71 38.66 23.39 35.37 25.52"/>
    <path class="cls-4" d="M19.69,31.13s1.55-2.13-.19-3.87-5.81-1.35-5.81-1.35l2.13,1.93,1.36,3.29Z"/>
    <path class="cls-5" d="M26.85,33.45S32.27,30,36,28.81s4.7.63,5,1.35c-1.45-.72-2.46-1.35-4.5-.82S26.85,33.45,26.85,33.45Z"/>
    <path class="cls-5" d="M30.53,17.78a4.81,4.81,0,0,1,1.16,3.67c-.19,2.33.78,2.33.78,2.33l.19-5.23Z"/>
  </g>
</svg>
