<svg xmlns="http://www.w3.org/2000/svg" viewBox="0 0 60 46">
  <defs>
    <style>
      .cls-1 { fill: #982e33; }
      .cls-2 { fill: #fbf173; }
      .cls-3 { fill: #f36f5a; }
      .cls-4 { fill: #b27561; }
    </style>
  </defs>
  <g id="Items_scale_140_" data-name="Items (scale 140)">
    <g id="Book">
      <path class="cls-1" d="M25.39,6.88,44.26,9.45l.45,2.85,2.71,2.16s-8.13,20.06-9.21,22.22-4.33,2.89-6.86,2.17c-3.3-.94-13.91-4.33-16.62-5.6s-2.53-3.25-1.27-6S25.39,6.88,25.39,6.88Z"/>
      <polygon class="cls-2" points="30.8 13.38 36.77 14.64 34.06 17.9 36.22 19.52 24.48 25.3 27.37 19.88 25.39 18.62 30.8 13.38"/>
      <path class="cls-3" d="M26,9.21a1.39,1.39,0,0,1,1.45-.67l13.76,3a.77.77,0,0,1,.55,1.12L33.4,30.54a1.19,1.19,0,0,1-1.38.61L17.85,26.69a.81.81,0,0,1-.49-1.19Zm5.42,20.57a1.18,1.18,0,0,0,1.38-.6l7.35-15.72a.76.76,0,0,0-.55-1.12L28,9.81a1.41,1.41,0,0,0-1.45.67L19,24.84A.8.8,0,0,0,19.47,26Z"/>
      <path class="cls-4" d="M44.71,12.3l1.36,1.08s-8.22,19-9.48,20.77-2.53,3.08-4.7,2.71-15.72-5.05-16.8-5.6.36-3.79,1.62-3.07S29.9,33.61,31.17,34s2.34-.36,3.25-1.62S44.71,12.3,44.71,12.3Z"/>
    </g>
  </g>
</svg>
