<svg id="Light" xmlns="http://www.w3.org/2000/svg" viewBox="0 0 60 46">
  <defs>
    <style>
      .cls-1 { fill: #807166; }
      .cls-2 { fill: #ddc29d; }
    </style>
  </defs>
  <g id="cave-boulder">
    <path class="cls-1" d="M11.81,17.26l3.09-9.8,3.62-1.81,7.74.26L28.32,8S38.39,29.39,40.71,33.78s-.77,5.68-.77,5.68S31.42,41,28.32,40.75,15.42,40,15.42,40l-4.9.52L5.61,37.13l-.77-4.9L9.48,17.78Z"/>
    <polygon class="cls-2" points="41.48 38.16 46.96 38.73 53.35 35.58 55.16 31.2 50 22.68 47.16 21.91 44.06 17.78 38.93 17.05 33.48 17.52 26.48 27.89 41.48 38.16"/>
    <path class="cls-2" d="M20.87,9.69a38.6,38.6,0,0,0-4.07.58c-1.74.39-1.9-2.81-1.9-2.81l3.62-1.81,7.74.26L28.32,8S38.39,29.39,40.71,33.78s-.77,5.68-.77,5.68S31.42,41,28.32,40.75s-3.14-1.81-3.14-1.81V32.53L22.13,13.89l3.05-3.23Z"/>
    <polygon class="cls-1" points="33.48 20.34 40.41 25.37 42.74 25.95 45.45 31.56 50.02 37.23 46.96 38.73 41.48 38.16 33.48 20.34"/>
  </g>
</svg>
