<svg xmlns="http://www.w3.org/2000/svg" viewBox="0 0 60 46">
  <defs>
    <style>
      .cls-1 { fill: #60382b; }
      .cls-2 { fill: #a56e53; }
      .cls-3 { fill: #e7ba89; }
      .cls-4 { fill: #764930; }
      .cls-5 { fill: #db8454; }
      .cls-6 { fill: #615552; }
      .cls-7 { fill: #d2442d; }
      .cls-8 { fill: #ed785b; }
    </style>
  </defs>
  <g id="Light">
    <g id="Exit">
      <polygon class="cls-1" points="6.79 33.18 7.56 40.53 52.69 40.34 53.72 34.33 53.75 32.99 6.79 33.18"/>
      <polygon class="cls-2" points="6.79 33.18 7.33 38.29 10.4 38.02 52.2 38.21 53.72 34.33 53.75 32.99 6.79 33.18"/>
      <path class="cls-3" d="M52.27,34.28a46.25,46.25,0,0,0,2.52-12.2c.52-6.45-7-12.45-10.91-14-6.29-2.51-15.41-3.29-22.9-2-5.3.92-8.33,2.79-10.73,5.23a18.23,18.23,0,0,0-4.56,8.21C4,25.76,7.15,30.91,8.53,34.28Z"/>
      <path class="cls-4" d="M14.33,34.28S12,29.69,12,26.21a15.6,15.6,0,0,1,6.19-12.64c2.33-1.68,6.43-3.42,13.79-3.23,9.58.24,13.69,5.56,15.24,10.6s-1.3,13.34-1.3,13.34Z"/>
      <path class="cls-5" d="M44.53,35c1.29-4.21,2.06-9.41.51-14.44s-8.51-7.87-13.29-8.26-9.93.77-12.26,2.45a14.38,14.38,0,0,0-6.17,11.93c0,3.48,2.76,7.54,2.76,7.54Z"/>
      <path class="cls-6" d="M30,12.27l.87,0-.05,6.12A3.59,3.59,0,0,1,33,20.16c.65,1.4-1.11,3.24-1.11,3.24l.73,3.34-1.89.54V34l-.72.28V27.44l-2.18-.78V26l1.22-3s-1.32-.23-1.32-2.5c0-.71.74-1.6,2.27-2.18Z"/>
    </g>
  </g>
  <g id="Cross">
    <g id="Cross-2" data-name="Cross">
      <g id="Cross-3" data-name="Cross">
        <polygon class="cls-7" points="27.59 13.77 34.46 7.05 39.49 12.47 39.49 15.05 35.35 19.3 39.37 21.63 39.49 24.73 34.98 30.15 29.56 24.86 24.4 28.21 20.98 25.11 20.98 22.6 23.75 19.17 20.98 16.08 21.43 13.37 23.88 10.66 27.59 13.77"/>
      </g>
      <g id="Cross-4" data-name="Cross">
        <polygon class="cls-8" points="27.59 13.77 34.46 7.05 39.49 12.47 34.09 18.58 39.37 21.63 34.53 27.63 29.49 22.4 25.13 25.99 20.98 22.6 25.04 17.57 21.82 14.92 21.43 13.37 23.88 10.66 27.59 13.77"/>
      </g>
    </g>
  </g>
</svg>
