<svg id="Light" xmlns="http://www.w3.org/2000/svg" viewBox="0 0 60 46">
  <defs>
    <style>
      .cls-1 { fill: #cd7256; }
      .cls-2 { fill: #974034; }
      .cls-3 { fill: #d4c8b0; }
      .cls-4 { fill: #3d3e4a; }
    </style>
  </defs>
  <g id="Monster-Normal">
    <path class="cls-1" d="M39,38A25.48,25.48,0,0,1,30,40c-4.39.34-9.48-2.32-9.48-2.32l-2.13-7.87,4.65-14.71,13.35-.39L40.3,27.44Z"/>
    <path class="cls-2" d="M37.53,23.37s-1.29-2.58-2.07-3-3.48.78-3.48.78,1.74,3.74.52,5.16S30.75,28,29.4,28.15s-1.74-.26-2.58-1.94c.52-1.29,1.55-4.77,1.55-4.77s-1.29-3-3-1.55a2.93,2.93,0,0,0-1.29,2.84l-2.71.13,1.16-5.81L38,16.15l.13,7.74Z"/>
    <path class="cls-3" d="M40.63,18.47l2.45-1.16s3.61.26,3.09,3.61S50,18.6,49,15.5s-3-5.29-5.8-5.55a4.46,4.46,0,0,0-3.1,1l-2.55,1,1.62,6.47Z"/>
    <path class="cls-4" d="M40.7,18.86s.57,2.83,1.22,5.29A20.88,20.88,0,0,1,39.72,39c-1.16-3.1-2.32-13.17-2.32-13.17s.26-7.16-.77-6.83a23.72,23.72,0,0,1-6.2,1.09c-2.2,0-5.55-.84-7.48-1.22-1,.64-1.61,16.83-3.55,19.93-1.16-.77-1.55-2.51-1.94-5.42A40.86,40.86,0,0,1,17,27.63c-.13-2.58,2.58-7.74,2.58-7.74s1.81-6.84,2.2-9.94C23,8.92,25.79,8,29.66,8s9.8,1.29,10.45,2.9c-.26,1-1.42,3-.9,4.84A10.26,10.26,0,0,0,40.7,18.86Z"/>
    <path class="cls-3" d="M21.79,10a8.54,8.54,0,0,0-8.65,1.42c-3.22,2.45-3.1,7.36.52,9,.51-1.29-.3-2.77.77-3.35A3.09,3.09,0,0,1,17,16.79s.26,3.87,2.58,3.1"/>
  </g>
</svg>
