<svg id="Rune-Green" xmlns="http://www.w3.org/2000/svg" xmlns:xlink="http://www.w3.org/1999/xlink" viewBox="0 0 28.17 32.2">
  <defs>
    <style>
      .cls-1 {
        fill: #473737;
      }

      .cls-2 {
        fill: #363636;
      }

      .cls-3 {
        fill: #78a199;
      }

      .cls-4 {
        fill: #4c7b5b;
      }

      .cls-5 {
        fill: #74efed;
      }

      .cls-6 {
        clip-path: url(#clip-path);
      }

      .cls-7 {
        fill: #755556;
      }
    </style>
    <clipPath id="clip-path" transform="translate(0.27)">
      <polygon class="cls-1" points="14.29 20.26 24.13 18.38 25.77 13.22 26.39 13.88 26.83 19.44 23.97 22.71 17.26 22.55 15.3 26.56 18.24 25.82 15.38 31.14 8.83 32.2 5.97 30.32 4.74 30.4 1.47 26.07 1.72 25.16 0.41 23.77 0 18.05 2.62 15.35 2.54 17.89 4.25 19.55 4.31 21.89 6.87 21.81 8.43 23.45 9.82 20.83 11.45 19.85 13.01 20.75 11.56 24.18 12.49 24.07 14.29 20.26"/>
    </clipPath>
  </defs>
  <polygon id="face3" class="cls-2" points="24.98 0.71 28.17 7.58 27.92 9.13 22.36 23.09 10.91 28.36 2.97 25.98 2.51 20.26 24.98 0.71"/>
  <polygon id="face1" class="cls-3" points="2.51 20.26 2.84 11.53 10.36 1.39 24.05 0 24.98 0.71 22.58 10.99 12.98 26.47 2.51 20.26"/>
  <path id="face2" class="cls-4" d="M22.3,11a14.06,14.06,0,0,0-4.58,5.23c-1.52,3.27-4.36,10.47-4.36,10.47s5.34,0,8.73-3.6C22.52,18.73,22.3,11,22.3,11Z" transform="translate(0.27)"/>
  <path id="stroke-1" class="cls-5" d="M14,5.21c1.47-.29,2.15-.44,2.37.65S16,7.35,14.76,8.44c-1.53,1.36-3.14,2.78-4.17,1.92-.6-.5,1.13-3.15,1.68-3.68-.76.42-1.2.22-1.36,0s.24-1.1,1-2c-1.17.81-1.75.65-2.48,1.85s0,1.57.65,1.65C9,9.46,8.49,9.79,8.23,10.77a1.61,1.61,0,0,0,1.26,1.84A6.27,6.27,0,0,0,7.81,16.9c0,1.39.57,2.74,2.29,4.42-1.31-2.74-1.42-4.66,0-6.62A14.13,14.13,0,0,1,15,10.44c2.48-1.56,4.7-5,4-5.89S16,3.77,14,5.21Z" transform="translate(0.27)"/>
  <g id="holder">
    <polygon class="cls-1" points="14.56 20.26 24.4 18.38 26.04 13.22 26.67 13.88 27.1 19.44 24.24 22.71 17.53 22.55 15.57 26.56 18.51 25.82 15.65 31.14 9.11 32.2 6.24 30.32 5.02 30.4 1.75 26.07 1.99 25.16 0.68 23.77 0.27 18.05 2.89 15.35 2.81 17.89 4.53 19.55 4.58 21.89 7.14 21.81 8.7 23.45 10.09 20.83 11.72 19.85 13.28 20.75 11.83 24.18 12.76 24.07 14.56 20.26"/>
    <g class="cls-6">
      <path id="highlight" class="cls-7" d="M26.78,12.51c-.11.28-1.64,6.55-1.64,6.55l-10,2.45L13,24.73l-1.47-.55.93-2L8.94,20.91,8.23,24l-1.36.71-1.63-1-2.19.49-.49-1.9,3.17-1L5,17.64,4,20.42l-2-.05L-.27,16.55l3.21-3.76Z" transform="translate(0.27)"/>
    </g>
  </g>
</svg>
