<svg id="Rune-Gold" xmlns="http://www.w3.org/2000/svg" xmlns:xlink="http://www.w3.org/1999/xlink" viewBox="0 0 28.17 32.2">
  <defs>
    <style>
      .cls-1 {
        fill: #473737;
      }

      .cls-2 {
        fill: #363636;
      }

      .cls-3 {
        fill: #b69f75;
      }

      .cls-4 {
        fill: #9c984e;
      }

      .cls-5 {
        fill: #ff5;
      }

      .cls-6 {
        clip-path: url(#clip-path);
      }

      .cls-7 {
        fill: #755556;
      }
    </style>
    <clipPath id="clip-path" transform="translate(0.27)">
      <polygon class="cls-1" points="14.29 20.26 24.13 18.38 25.77 13.22 26.39 13.88 26.83 19.44 23.97 22.71 17.26 22.55 15.3 26.56 18.24 25.82 15.38 31.14 8.83 32.2 5.97 30.32 4.74 30.4 1.47 26.07 1.72 25.16 0.41 23.77 0 18.05 2.62 15.35 2.54 17.89 4.25 19.55 4.31 21.89 6.87 21.81 8.43 23.45 9.82 20.83 11.45 19.85 13.01 20.75 11.56 24.18 12.49 24.07 14.29 20.26"/>
    </clipPath>
  </defs>
  <polygon id="face3" class="cls-2" points="24.98 0.71 28.17 7.58 27.92 9.13 22.36 23.09 10.91 28.36 2.97 25.98 2.51 20.26 24.98 0.71"/>
  <polygon id="face1" class="cls-3" points="2.51 20.26 2.84 11.53 10.36 1.39 24.05 0 24.98 0.71 22.58 10.99 12.98 26.47 2.51 20.26"/>
  <path id="face2" class="cls-4" d="M22.3,11a14.06,14.06,0,0,0-4.58,5.23c-1.52,3.27-4.36,10.47-4.36,10.47s5.34,0,8.73-3.6C22.52,18.73,22.3,11,22.3,11Z" transform="translate(0.27)"/>
  <path id="rune2" class="cls-5" d="M18.7,8.15C18.12,7.41,18,7.09,17,5.49c-.89-1.39.45-2.66-.49-2.9-.43-.12-2.29.84-2.29,3.68s.6,2.47.25,6-2.37,5.11-3.93,5.32-3.09-.4-2.75-1.49a2.87,2.87,0,0,1,2.75-1.54c.55.22-.61,1.11-.61,1.11s2.69-.42,2.13-1.93c-.25-.65-3.74-.66-4.79.82s-1.73,3.55.49,4.13A6.33,6.33,0,0,0,15,15.51c1.92-3.27.9-4.62.65-9.4C16.48,6.47,16.24,6.39,18.7,8.15Z" transform="translate(0.27)"/>
  <path id="rune1" class="cls-5" d="M14.89,10.2a4.23,4.23,0,0,1-2,1.39c-1.43.36-3.64.53-4.25,0-.26-.21-.08-1.15.82-1.47a1.89,1.89,0,0,1,2,.36,1.1,1.1,0,0,0,1.68.33,1.66,1.66,0,0,0-.49-2.09,4.7,4.7,0,0,0-3.93.09,3.41,3.41,0,0,0-1.59,2.57,1.26,1.26,0,0,0,1.18,1.52,15.14,15.14,0,0,0,4.05-.17,8.8,8.8,0,0,0,2.78-1.31Z" transform="translate(0.27)"/>
  <g id="holder">
    <polygon class="cls-1" points="14.56 20.26 24.4 18.38 26.04 13.22 26.67 13.88 27.1 19.44 24.24 22.71 17.53 22.55 15.57 26.56 18.51 25.82 15.65 31.14 9.11 32.2 6.24 30.32 5.02 30.4 1.75 26.07 1.99 25.16 0.68 23.77 0.27 18.05 2.89 15.35 2.81 17.89 4.53 19.55 4.58 21.89 7.14 21.81 8.7 23.45 10.09 20.83 11.72 19.85 13.28 20.75 11.83 24.18 12.76 24.07 14.56 20.26"/>
    <g class="cls-6">
      <path id="highlight" class="cls-7" d="M26.78,12.51c-.11.28-1.64,6.55-1.64,6.55l-10,2.45L13,24.73l-1.47-.55.93-2L8.94,20.91,8.23,24l-1.36.71-1.63-1-2.19.49-.49-1.9,3.17-1L5,17.64,4,20.42l-2-.05L-.27,16.55l3.21-3.76Z" transform="translate(0.27)"/>
    </g>
  </g>
</svg>
