<svg id="Rune-Purple" xmlns="http://www.w3.org/2000/svg" xmlns:xlink="http://www.w3.org/1999/xlink" viewBox="0 0 36 36">
  <defs>
    <style>
      .cls-1 { fill: #473737; }
      .cls-2 { fill: #363636; }
      .cls-3 { fill: #9276c0; }
      .cls-4 { fill: #6b35e3; }
      .cls-5 { fill: #991ef5; }
      .cls-6 { clip-path: url(#clip-path); }
      .cls-7 { fill: #755556; }
    </style>
    <clipPath id="clip-path" transform="translate(-3.78 -1.9)">
      <polygon class="cls-1" points="18.34 22.16 28.18 20.28 29.82 15.12 30.45 15.78 30.88 21.34 28.02 24.61 21.31 24.45 19.35 28.46 22.29 27.72 19.43 33.04 12.89 34.1 10.03 32.22 8.8 32.3 5.53 27.96 5.77 27.07 4.46 25.68 4.05 19.95 6.67 17.25 6.59 19.79 8.31 21.45 8.36 23.79 10.92 23.71 12.48 25.35 13.87 22.73 15.51 21.75 17.06 22.65 15.61 26.08 16.54 25.98 18.34 22.16"/>
    </clipPath>
  </defs>
  <polygon id="face3" class="cls-2" points="24.98 0.71 28.17 7.58 27.92 9.13 22.36 23.09 10.91 28.36 2.97 25.98 2.51 20.26 24.98 0.71"/>
  <polygon id="face1" class="cls-3" points="2.51 20.26 2.84 11.53 10.36 1.39 24.05 0 24.98 0.71 22.58 10.99 12.98 26.47 2.51 20.26"/>
  <path id="face2" class="cls-4" d="M26.36,12.89a14,14,0,0,0-4.58,5.23c-1.53,3.27-4.37,10.47-4.37,10.47s5.35,0,8.73-3.6C26.58,20.63,26.36,12.89,26.36,12.89Z" transform="translate(-3.78 -1.9)"/>
  <path id="stroke-1" class="cls-5" d="M14.85,9.45a9.11,9.11,0,0,0-.76.87,14.43,14.43,0,0,0,4.31.22A8.07,8.07,0,0,0,22.76,8.2a15.89,15.89,0,0,1-4.15,1.2Z" transform="translate(-3.78 -1.9)"/>
  <path id="stroke-2" class="cls-5" d="M18.74,7.11c-.49.45-.86.94-1.52.81s-.68-1.22,0-2c1.15-1.23,3.28-2,4.18-1.76.55.15-.13,2.54-.74,3.56a7.78,7.78,0,0,1-2.52,3.2A28.35,28.35,0,0,0,15,13.43c-.2,1.52-.16,2.51.28,3.06a4.52,4.52,0,0,1,3.32-1.08c1.52.12,2.09.74,2.09,1.35a2.46,2.46,0,0,1-2.25,2.17,6.2,6.2,0,0,1-3.08-.59c-.26.46-.15,1.28-.31,1.77A3.25,3.25,0,0,1,14.63,18a11.39,11.39,0,0,1-.76-.9c-.41-.6-.41-1.12-.21-2.63a7.56,7.56,0,0,1-2.49,3.76A3.51,3.51,0,0,1,8.74,19a1.25,1.25,0,0,1-1.14-.87S9,18,9.51,18.07a4.16,4.16,0,0,0,2.67-2.35,6,6,0,0,1,2.45-3.49,15.52,15.52,0,0,0,3-2.14c1.31-1,2.82-4.5,2.54-4.78S18,5.88,17.47,7C17.26,7.51,18.37,7.27,18.74,7.11Zm-2.81,10a8,8,0,0,0,1.35.57,1.61,1.61,0,0,0,1.27-.21c.38-.24.48-.57.55-1.2A4.39,4.39,0,0,0,15.93,17.09Z" transform="translate(-3.78 -1.9)"/>
  <g id="holder">
    <polygon class="cls-1" points="14.56 20.26 24.4 18.38 26.04 13.22 26.67 13.88 27.1 19.44 24.24 22.71 17.53 22.55 15.57 26.56 18.51 25.82 15.65 31.14 9.11 32.2 6.24 30.32 5.02 30.4 1.75 26.07 1.99 25.16 0.68 23.77 0.27 18.05 2.89 15.35 2.81 17.89 4.53 19.55 4.58 21.89 7.14 21.81 8.7 23.45 10.09 20.83 11.72 19.85 13.28 20.75 11.83 24.18 12.76 24.07 14.56 20.26"/>
    <g class="cls-6">
      <path id="highlight" class="cls-7" d="M30.83,14.41c-.11.28-1.64,6.55-1.64,6.55l-10,2.45-2.07,3.22-1.48-.55.93-2L13,22.81l-.71,3.11-1.37.71-1.63-1-2.18.49-.49-1.9,3.16-1-.71-3.65L8,22.32l-2-.05L3.78,18.45,7,14.69Z" transform="translate(-3.78 -1.9)"/>
    </g>
  </g>
</svg>
