<svg id="Rune-Green" xmlns="http://www.w3.org/2000/svg" xmlns:xlink="http://www.w3.org/1999/xlink" viewBox="0 0 28.17 32.2">
  <defs>
    <style>
      .cls-1 { fill: #473737; }
      .cls-2 { fill: #363636; }
      .cls-3 { fill: #78a199; }
      .cls-4 { fill: #4c7b5b; }
      .cls-5 { fill: #74efed; }
      .cls-6 { clip-path: url(#clip-path); }
      .cls-7 { fill: #755556; }
    </style>
    <clipPath id="clip-path" transform="translate(-3.78 -1.9)">
      <polygon class="cls-1" points="18.34 22.16 28.18 20.28 29.82 15.12 30.45 15.78 30.88 21.34 28.02 24.61 21.31 24.45 19.35 28.46 22.29 27.72 19.43 33.04 12.89 34.1 10.03 32.22 8.8 32.3 5.53 27.96 5.77 27.07 4.46 25.68 4.05 19.95 6.67 17.25 6.59 19.79 8.31 21.45 8.36 23.79 10.92 23.71 12.48 25.35 13.87 22.73 15.51 21.75 17.06 22.65 15.61 26.08 16.54 25.98 18.34 22.16"/>
    </clipPath>
  </defs>
  <polygon id="face3" class="cls-2" points="24.98 0.71 28.17 7.58 27.92 9.13 22.36 23.09 10.91 28.36 2.97 25.98 2.51 20.26 24.98 0.71"/>
  <polygon id="face1" class="cls-3" points="2.51 20.26 2.84 11.53 10.36 1.39 24.05 0 24.98 0.71 22.58 10.99 12.98 26.47 2.51 20.26"/>
  <path id="face2" class="cls-4" d="M26.36,12.89a14,14,0,0,0-4.58,5.23c-1.53,3.27-4.37,10.47-4.37,10.47s5.35,0,8.73-3.6C26.58,20.63,26.36,12.89,26.36,12.89Z" transform="translate(-3.78 -1.9)"/>
  <path id="stroke-1" class="cls-5" d="M18.08,7.11c1.47-.29,2.16-.44,2.37.65S20,9.25,18.82,10.34c-1.54,1.36-3.15,2.78-4.17,1.92-.6-.5,1.13-3.15,1.67-3.68-.76.42-1.19.22-1.36,0s.25-1.1,1-2c-1.17.81-1.74.65-2.48,1.85s0,1.57.65,1.65c-1.1,1.35-1.56,1.68-1.82,2.66a1.59,1.59,0,0,0,1.25,1.84,6.27,6.27,0,0,0-1.67,4.29c0,1.39.57,2.74,2.29,4.42-1.31-2.74-1.42-4.66,0-6.62A14,14,0,0,1,19,12.34c2.49-1.56,4.71-5,4.05-5.89S20,5.67,18.08,7.11Z" transform="translate(-3.78 -1.9)"/>
  <g id="holder">
    <polygon class="cls-1" points="14.56 20.26 24.4 18.38 26.04 13.22 26.67 13.88 27.1 19.44 24.24 22.71 17.53 22.55 15.57 26.56 18.51 25.82 15.65 31.14 9.11 32.2 6.24 30.32 5.02 30.4 1.75 26.07 1.99 25.16 0.68 23.77 0.27 18.05 2.89 15.35 2.81 17.89 4.53 19.55 4.58 21.89 7.14 21.81 8.7 23.45 10.09 20.83 11.72 19.85 13.28 20.75 11.83 24.18 12.76 24.07 14.56 20.26"/>
    <g class="cls-6">
      <path id="highlight" class="cls-7" d="M30.83,14.41c-.11.28-1.64,6.55-1.64,6.55l-10,2.45-2.07,3.22-1.48-.55.93-2L13,22.81l-.71,3.11-1.37.71-1.63-1-2.18.49-.49-1.9,3.16-1-.71-3.65L8,22.32l-2-.05L3.78,18.45,7,14.69Z" transform="translate(-3.78 -1.9)"/>
    </g>
  </g>
</svg>
