<svg xmlns="http://www.w3.org/2000/svg" xmlns:xlink="http://www.w3.org/1999/xlink" viewBox="0 0 17.73 17.73">
  <defs>
    <style>
      .cls-1, .cls-4 { fill: #fff; }
      .cls-1, .cls-7 {
        stroke: #544464;
        stroke-miterlimit: 10;
        stroke-width: 0.1px;
      }
      .cls-2 { fill: #fefbd9; }
      .cls-3 { fill: #6095df; }
      .cls-5 { clip-path: url(#clip-path); }
      .cls-6 { fill: #d38dd8; }
      .cls-7 { fill: none; }
      .cls-8 { clip-path: url(#clip-path-2); }
      .cls-9 { fill: #fbea9e; }
      .cls-10 { fill: #e1af4a; }
      .cls-11 { fill: #a98338; }
      .cls-12 { fill: #544464; }
      .cls-13 { fill: #93895e; }
    </style>
    <clipPath id="clip-path" transform="translate(-9.14 -9.14)">
      <path class="cls-1" d="M18,24.5A6.5,6.5,0,1,1,24.5,18,6.51,6.51,0,0,1,18,24.5ZM24,18a6,6,0,1,0-6,6A6,6,0,0,0,24,18Z"/>
    </clipPath>
    <clipPath id="clip-path-2" transform="translate(-9.14 -9.14)">
      <circle class="cls-2" cx="18" cy="18" r="6"/>
    </clipPath>
  </defs>
  <circle id="outer-circle" class="cls-3" cx="8.86" cy="8.86" r="7.08"/>
  <g id="stripped-circle">
    <path class="cls-4" d="M18,24.5A6.5,6.5,0,1,1,24.5,18,6.51,6.51,0,0,1,18,24.5ZM24,18a6,6,0,1,0-6,6A6,6,0,0,0,24,18Z" transform="translate(-9.14 -9.14)"/>
    <g class="cls-5">
      <rect class="cls-6" x="17.7" y="11" width="0.6" height="14" transform="translate(-13.18 -3.86) rotate(-15)"/>
      <rect class="cls-6" x="17.7" y="11" width="0.6" height="14" transform="translate(-16.59 8.86) rotate(-45)"/>
      <rect class="cls-6" x="17.7" y="11" width="0.6" height="14" transform="translate(-13.18 21.59) rotate(-75)"/>
      <rect class="cls-6" x="17.7" y="11" width="0.6" height="14" transform="translate(-3.86 30.91) rotate(-105)"/>
      <rect class="cls-6" x="17.7" y="11" width="0.6" height="14" transform="translate(8.86 34.32) rotate(-135)"/>
      <rect class="cls-6" x="17.7" y="11" width="0.6" height="14" transform="translate(21.59 30.91) rotate(-165)"/>
    </g>
    <path class="cls-7" d="M18,24.5A6.5,6.5,0,1,1,24.5,18,6.51,6.51,0,0,1,18,24.5ZM24,18a6,6,0,1,0-6,6A6,6,0,0,0,24,18Z" transform="translate(-9.14 -9.14)"/>
  </g>
  <g id="yellow-bands">
    <circle class="cls-2" cx="8.86" cy="8.86" r="6"/>
    <g class="cls-8">
      <polygon class="cls-9" points="13.3 16.54 4.43 1.19 8.86 0 8.86 17.73 13.3 16.54"/>
      <polygon class="cls-9" points="17.73 8.86 0 8.86 1.19 4.43 16.54 13.3 17.73 8.86"/>
      <polygon class="cls-9" points="13.3 1.19 4.43 16.54 1.19 13.3 16.54 4.43 13.3 1.19"/>
    </g>
  </g>
  <g id="arrow">
    <path class="cls-10" d="M18,19.37A1.37,1.37,0,0,1,16.63,18,6.14,6.14,0,0,1,18,15.54,6.14,6.14,0,0,1,19.37,18,1.37,1.37,0,0,1,18,19.37Z" transform="translate(-9.14 -9.14)"/>
    <path class="cls-11" d="M18,16a5.62,5.62,0,0,1,1.12,2,1.12,1.12,0,0,1-2.24,0A5.62,5.62,0,0,1,18,16m0-.85c-.94,1.28-1.62,2.26-1.62,2.89a1.62,1.62,0,0,0,3.24,0c0-.63-.68-1.61-1.62-2.89Z" transform="translate(-9.14 -9.14)"/>
  </g>
  <g id="inner-circle">
    <path class="cls-12" d="M18,12.1A5.9,5.9,0,1,1,12.1,18,5.91,5.91,0,0,1,18,12.1m0-.1a6,6,0,1,0,6,6,6,6,0,0,0-6-6Z" transform="translate(-9.14 -9.14)"/>
  </g>
  <g id="slots">
    <rect class="cls-13" x="8.11" y="3.21" width="1.5" height="1.5" rx="0.2"/>
    <rect class="cls-13" x="8.11" y="13.02" width="1.5" height="1.5" rx="0.2"/>
    <rect class="cls-13" x="14.8" y="13" width="1.5" height="1.5" rx="0.2" transform="translate(-13.93 0.48) rotate(-30)"/>
    <rect class="cls-13" x="19.7" y="21.5" width="1.5" height="1.5" rx="0.2" transform="translate(-17.52 4.07) rotate(-30)"/>
    <rect class="cls-13" x="13" y="14.8" width="1.5" height="1.5" rx="0.2" transform="translate(-15.72 10.55) rotate(-60)"/>
    <rect class="cls-13" x="21.5" y="19.7" width="1.5" height="1.5" rx="0.2" transform="translate(-15.72 20.36) rotate(-60)"/>
    <rect class="cls-13" x="12.35" y="17.25" width="1.5" height="1.5" rx="0.2" transform="translate(-14.04 21.96) rotate(-90)"/>
    <rect class="cls-13" x="22.15" y="17.25" width="1.5" height="1.5" rx="0.2" transform="translate(-4.23 31.77) rotate(-90)"/>
    <rect class="cls-13" x="13" y="19.7" width="1.5" height="1.5" rx="0.2" transform="translate(-6.22 33.45) rotate(-120)"/>
    <rect class="cls-13" x="21.5" y="14.8" width="1.5" height="1.5" rx="0.2" transform="translate(10.77 33.45) rotate(-120)"/>
    <rect class="cls-13" x="14.8" y="21.5" width="1.5" height="1.5" rx="0.2" transform="translate(8.76 40.15) rotate(-150)"/>
    <rect class="cls-13" x="19.7" y="13" width="1.5" height="1.5" rx="0.2" transform="translate(22.15 26.76) rotate(-150)"/>
  </g>
</svg>