<svg id="Wheel" xmlns="http://www.w3.org/2000/svg" xmlns:xlink="http://www.w3.org/1999/xlink" viewBox="0 0 30.07 30.07">
  <defs>
    <style>
      .cls-1, .cls-4 {
        fill: #fff;
      }

      .cls-1, .cls-7 {
        stroke: #544464;
        stroke-miterlimit: 10;
        stroke-width: 0.1px;
      }

      .cls-2 {
        fill: #fefbd9;
      }

      .cls-3 {
        fill: #6095df;
      }

      .cls-5 {
        clip-path: url(#clip-path);
      }

      .cls-6 {
        fill: #d38dd8;
      }

      .cls-7 {
        fill: none;
      }

      .cls-8 {
        clip-path: url(#clip-path-2);
      }

      .cls-9 {
        fill: #fbea9e;
      }

      .cls-10 {
        fill: #e1af4a;
      }

      .cls-11 {
        fill: #a98338;
      }

      .cls-12 {
        fill: #544464;
      }

      .cls-13 {
        fill: #93895e;
      }
    </style>
    <clipPath id="clip-path" transform="translate(3.03 3.03)">
      <path class="cls-1" d="M12,23A11,11,0,1,1,23,12,11,11,0,0,1,12,23ZM22.18,12A10.18,10.18,0,1,0,12,22.18,10.2,10.2,0,0,0,22.18,12Z"/>
    </clipPath>
    <clipPath id="clip-path-2" transform="translate(3.03 3.03)">
      <circle class="cls-2" cx="12" cy="12" r="10.18"/>
    </clipPath>
  </defs>
  <circle id="outer-circle" class="cls-3" cx="15.03" cy="15.03" r="12"/>
  <g id="stripped-circle">
    <path class="cls-4" d="M12,23A11,11,0,1,1,23,12,11,11,0,0,1,12,23ZM22.18,12A10.18,10.18,0,1,0,12,22.18,10.2,10.2,0,0,0,22.18,12Z" transform="translate(3.03 3.03)"/>
    <g class="cls-5">
      <rect class="cls-6" x="11.49" y="0.13" width="1.02" height="23.74" transform="matrix(0.97, -0.26, 0.26, 0.97, 0.34, 6.55)"/>
      <rect class="cls-6" x="11.49" y="0.13" width="1.02" height="23.74" transform="translate(-1.94 15.03) rotate(-45)"/>
      <rect class="cls-6" x="11.49" y="0.13" width="1.02" height="23.74" transform="translate(0.34 23.52) rotate(-75)"/>
      <rect class="cls-6" x="11.49" y="0.13" width="1.02" height="23.74" transform="matrix(-0.26, -0.97, 0.97, -0.26, 6.55, 29.73)"/>
      <rect class="cls-6" x="11.49" y="0.13" width="1.02" height="23.74" transform="translate(15.03 32) rotate(-135)"/>
      <rect class="cls-6" x="11.49" y="0.13" width="1.02" height="23.74" transform="translate(23.52 29.73) rotate(-165)"/>
    </g>
    <path class="cls-7" d="M12,23A11,11,0,1,1,23,12,11,11,0,0,1,12,23ZM22.18,12A10.18,10.18,0,1,0,12,22.18,10.2,10.2,0,0,0,22.18,12Z" transform="translate(3.03 3.03)"/>
  </g>
  <g id="yellow-bands">
    <circle class="cls-2" cx="15.03" cy="15.03" r="10.18"/>
    <g class="cls-8">
      <polygon class="cls-9" points="22.55 28.05 7.52 2.01 15.03 0 15.03 30.07 22.55 28.05"/>
      <polygon class="cls-9" points="30.07 15.03 0 15.03 2.01 7.52 28.05 22.55 30.07 15.03"/>
      <polygon class="cls-9" points="22.55 2.01 7.52 28.05 2.01 22.55 28.05 7.52 22.55 2.01"/>
    </g>
  </g>
  <g id="Arrow">
    <path class="cls-10" d="M12,14.5A2.5,2.5,0,0,1,9.5,12c0-1,1.07-2.53,2.5-4.47C13.43,9.47,14.5,11,14.5,12A2.5,2.5,0,0,1,12,14.5Z" transform="translate(3.03 3.03)"/>
    <path class="cls-11" d="M12,8c1.26,1.73,2.25,3.21,2.25,4.05a2.25,2.25,0,0,1-4.5,0c0-.84,1-2.32,2.25-4m0-.84C10.41,9.26,9.25,10.93,9.25,12a2.75,2.75,0,0,0,5.5,0c0-1.07-1.16-2.74-2.75-4.89Z" transform="translate(3.03 3.03)"/>
  </g>
  <g id="inner-circle">
    <path class="cls-12" d="M12,1.92A10.08,10.08,0,1,1,1.92,12,10.09,10.09,0,0,1,12,1.92m0-.1A10.18,10.18,0,1,0,22.18,12,10.18,10.18,0,0,0,12,1.82Z" transform="translate(3.03 3.03)"/>
  </g>
  <g id="Slots">
    <rect class="cls-13" x="8.58" y="2.7" width="2.54" height="2.54" rx="0.34" transform="translate(2.34 5.72) rotate(-15)"/>
    <rect class="cls-13" x="12.88" y="18.76" width="2.54" height="2.54" rx="0.34" transform="translate(-1.67 7.38) rotate(-15)"/>
    <rect class="cls-13" x="4.85" y="4.85" width="2.54" height="2.54" rx="0.34" transform="translate(0.5 9.15) rotate(-45)"/>
    <rect class="cls-13" x="16.61" y="16.61" width="2.54" height="2.54" rx="0.34" transform="translate(-4.37 20.91) rotate(-45)"/>
    <rect class="cls-13" x="2.7" y="8.58" width="2.54" height="2.54" rx="0.34" transform="translate(-3.54 14.17) rotate(-75)"/>
    <rect class="cls-13" x="18.76" y="12.88" width="2.54" height="2.54" rx="0.34" transform="translate(4.21 32.87) rotate(-75)"/>
    <rect class="cls-13" x="2.7" y="12.88" width="2.54" height="2.54" rx="0.34" transform="translate(-5.64 24.68) rotate(-105)"/>
    <rect class="cls-13" x="18.76" y="8.58" width="2.54" height="2.54" rx="0.34" transform="translate(18.74 34.78) rotate(-105)"/>
    <rect class="cls-13" x="4.85" y="16.61" width="2.54" height="2.54" rx="0.34" transform="translate(0.84 37.88) rotate(-135)"/>
    <rect class="cls-13" x="16.61" y="4.85" width="2.54" height="2.54" rx="0.34" transform="translate(29.23 26.12) rotate(-135)"/>
    <rect class="cls-13" x="8.58" y="18.76" width="2.54" height="2.54" rx="0.34" transform="translate(17.21 44.96) rotate(-165)"/>
    <rect class="cls-13" x="12.88" y="2.7" width="2.54" height="2.54" rx="0.34" transform="translate(29.83 14.5) rotate(-165)"/>
  </g>
</svg>
