<svg id="Layer_1" data-name="Layer 1" xmlns="http://www.w3.org/2000/svg" viewBox="0 0 32 32">
  <defs>
    <style>
      .cls-1 {
        fill: #30e773;
      }

      .cls-2 {
        fill: #084d22;
      }
    </style>
  </defs>
  <g>
    <polygon class="cls-1" points="19.62 1 29.56 7.79 28.44 9.66 18.3 2.85 19.62 1"/>
    <g>
      <path class="cls-2" d="M13.15,30.5a9,9,0,0,1-6.34-2.15C.32,21.72,3.71,15.51,4.9,13.77a10.24,10.24,0,0,1,8.44-4.7,9.53,9.53,0,0,1,2.6.35l.34.09L21,3.1l6.17,4.61-4.22,6.6.26.28c3.07,3.37,1.62,9.22-1.49,12.71-1.73,1.94-5.08,3.2-8.53,3.2Z"/>
      <path class="cls-1" d="M21.06,3.8l5.4,4L22.7,13.72l-.42.64.52.57c2.79,3.06,1.48,8.7-1.49,12-1.65,1.85-4.85,3-8.16,3a8.43,8.43,0,0,1-6-2c-6.23-6.35-3-12.28-1.85-13.95a9.73,9.73,0,0,1,8-4.49,9.43,9.43,0,0,1,2.47.34l.67.19.4-.56L21.06,3.8m-.21-1.4L16.08,8.94a10.18,10.18,0,0,0-2.74-.38,10.67,10.67,0,0,0-8.85,4.93c-2.65,3.88-3.43,9.7,2,15.21A9.41,9.41,0,0,0,13.15,31c3.4,0,7-1.21,8.9-3.37,3.42-3.83,4.62-9.94,1.49-13.37l4.27-6.67-7-5.19Z"/>
    </g>
    <path class="cls-1" d="M25.12,21.51a23.14,23.14,0,0,1-5.33-.85,8.54,8.54,0,0,1-4-3,3.8,3.8,0,0,0-2.66-1.73c-.37.31-.33,1.62-1.65,1.35s-.36-1.75-.55-2.94c-.83-.59-4.86-.45-6.73-.34-2.39,3.87-2.9,9.43,2.28,14.71,3.55,3.61,12.18,2.75,15.59-1.07A13.31,13.31,0,0,0,25.12,21.51Z"/>
    <path class="cls-1" d="M17.71,13.21c0,1.26,1.4,1.62,2.42,1.12.57-.28,1.42-2.1-.29-2.66S17.71,12,17.71,13.21Z"/>
    <path class="cls-1" d="M18.71,17.69c.1,1.54,1.7,1.25,2.27.69a1.06,1.06,0,0,0-.31-1.86C19.56,16.08,18.61,16.29,18.71,17.69Z"/>
  </g>
</svg>
