<svg id="Wheel" xmlns="http://www.w3.org/2000/svg" xmlns:xlink="http://www.w3.org/1999/xlink" viewBox="0 0 32 32">
  <defs>
    <style>
      .cls-1 {
        fill: #fff;
      }

      .cls-2 {
        opacity: 0.8;
      }

      .cls-3 {
        fill: #6095df;
      }

      .cls-4 {
        fill: #ad741b;
      }

      .cls-5 {
        clip-path: url(#clip-path);
      }

      .cls-6 {
        fill: #ffcb1d;
      }

      .cls-7 {
        fill: #a98338;
      }

      .cls-8 {
        fill: #fefbd9;
      }
    </style>
    <clipPath id="clip-path">
      <circle class="cls-1" cx="16" cy="16" r="12.5"/>
    </clipPath>
  </defs>
  <g>
    <g id="outline" class="cls-2">
      <circle cx="16" cy="16" r="16"/>
    </g>
    <circle id="outer-circle" class="cls-3" cx="16" cy="16" r="15"/>
    <g id="inner-circle">
      <circle class="cls-4" cx="16" cy="16" r="13.57"/>
    </g>
    <g id="yellow-bands">
      <circle class="cls-1" cx="16" cy="16" r="12.5"/>
      <g class="cls-5">
        <g>
          <polyline class="cls-6" points="16 16 12.27 2.07 19.73 2.07 16 16"/>
          <polygon class="cls-6" points="19.73 29.93 12.27 29.93 16 16 19.73 29.93"/>
        </g>
        <g>
          <polyline class="cls-6" points="16 16 2.07 12.27 5.8 5.8 16 16"/>
          <polygon class="cls-6" points="29.93 19.73 26.2 26.2 16 16 29.93 19.73"/>
        </g>
        <g>
          <polyline class="cls-6" points="16 16 5.8 26.2 2.07 19.73 16 16"/>
          <polygon class="cls-6" points="26.2 5.8 29.93 12.27 16 16 26.2 5.8"/>
        </g>
      </g>
    </g>
    <g id="Arrow">
      <path class="cls-7" d="M19.66,16a3.66,3.66,0,0,1-7.32,0c0-1.43,1.54-3.65,3.66-6.53C18.12,12.35,19.66,14.57,19.66,16Z"/>
    </g>
    <circle id="Center" class="cls-8" cx="16" cy="16" r="2"/>
  </g>
</svg>
