<svg id="Layer_1" data-name="Layer 1" xmlns="http://www.w3.org/2000/svg" viewBox="0 0 5 4.26"><defs><style>.cls-1{fill:#b42328;}</style></defs><g id="Butterfly"><path class="cls-1" d="M2.5,3.17a1.59,1.59,0,0,1-1,1.06.7.7,0,0,1-.89-.49,1.32,1.32,0,0,1,.89-1.16,2.81,2.81,0,0,1-.92-.45A1.57,1.57,0,0,1,0,.79C.11,0,.78,0,1.3,0A1.6,1.6,0,0,1,2.5,1.42Z"/><path class="cls-1" d="M2.5,3.17a1.59,1.59,0,0,0,1,1.06.7.7,0,0,0,.89-.49,1.32,1.32,0,0,0-.89-1.16,2.81,2.81,0,0,0,.92-.45A1.57,1.57,0,0,0,5,.79C4.89,0,4.22,0,3.7,0A1.6,1.6,0,0,0,2.5,1.42Z"/></g></svg>